<svg width="1168" height="595" viewBox="0 0 1168 595" fill="none" xmlns="http://www.w3.org/2000/svg">
<path d="M0 0H1168V595H0V0Z" fill="#0D1117"/>
<path d="M519 201H62V207H519V201Z" fill="#414356"/>
<path d="M65.706 193L62.85 168.18H65.774L67.644 186.54C67.6893 187.039 67.7347 187.56 67.78 188.104C67.8253 188.625 67.8593 189.124 67.882 189.6C67.9273 190.076 67.95 190.473 67.95 190.79C67.9953 190.473 68.0293 190.076 68.052 189.6C68.0973 189.124 68.1427 188.625 68.188 188.104C68.256 187.56 68.324 187.039 68.392 186.54L70.704 168.18H73.866L75.974 186.54C76.042 187.039 76.0987 187.56 76.144 188.104C76.212 188.625 76.2687 189.124 76.314 189.6C76.382 190.076 76.4273 190.473 76.45 190.79C76.4727 190.473 76.4953 190.076 76.518 189.6C76.5633 189.124 76.6087 188.625 76.654 188.104C76.722 187.56 76.7787 187.039 76.824 186.54L78.762 168.18H81.55L78.626 193H74.784L72.676 174.3C72.6307 173.779 72.574 173.269 72.506 172.77C72.4607 172.271 72.4153 171.807 72.37 171.376C72.3247 170.945 72.2907 170.594 72.268 170.322C72.2453 170.594 72.2 170.945 72.132 171.376C72.0867 171.807 72.0413 172.271 71.996 172.77C71.9507 173.269 71.894 173.779 71.826 174.3L69.548 193H65.706ZM92.5867 193.34C91.1134 193.34 89.8214 193.045 88.7107 192.456C87.6227 191.867 86.7727 191.039 86.1607 189.974C85.5714 188.886 85.2767 187.628 85.2767 186.2V181.1C85.2767 179.649 85.5714 178.391 86.1607 177.326C86.7727 176.261 87.6227 175.433 88.7107 174.844C89.8214 174.255 91.1134 173.96 92.5867 173.96C94.0601 173.96 95.3407 174.255 96.4287 174.844C97.5394 175.433 98.3894 176.261 98.9787 177.326C99.5907 178.391 99.8967 179.649 99.8967 181.1V184.398H88.2687V186.2C88.2687 187.673 88.6427 188.807 89.3907 189.6C90.1387 190.371 91.2041 190.756 92.5867 190.756C93.7654 190.756 94.7174 190.552 95.4427 190.144C96.1681 189.713 96.6101 189.079 96.7687 188.24H99.8287C99.6247 189.804 98.8541 191.051 97.5167 191.98C96.2021 192.887 94.5587 193.34 92.5867 193.34ZM96.9047 182.358V181.1C96.9047 179.627 96.5307 178.493 95.7827 177.7C95.0574 176.907 93.9921 176.51 92.5867 176.51C91.2041 176.51 90.1387 176.907 89.3907 177.7C88.6427 178.493 88.2687 179.627 88.2687 181.1V182.086H97.1427L96.9047 182.358ZM114.061 193.34C112.52 193.34 111.285 192.932 110.355 192.116C109.426 191.277 108.961 190.144 108.961 188.716L109.573 189.43H108.961V193H105.901V168.18H108.961V173.62L108.893 177.87H109.573L108.961 178.584C108.961 177.179 109.426 176.057 110.355 175.218C111.307 174.379 112.543 173.96 114.061 173.96C115.943 173.96 117.45 174.583 118.583 175.83C119.717 177.077 120.283 178.777 120.283 180.93V186.404C120.283 188.535 119.717 190.223 118.583 191.47C117.45 192.717 115.943 193.34 114.061 193.34ZM113.041 190.688C114.333 190.688 115.353 190.303 116.101 189.532C116.849 188.761 117.223 187.651 117.223 186.2V181.1C117.223 179.649 116.849 178.539 116.101 177.768C115.353 176.997 114.333 176.612 113.041 176.612C111.795 176.612 110.797 177.009 110.049 177.802C109.324 178.595 108.961 179.695 108.961 181.1V186.2C108.961 187.605 109.324 188.705 110.049 189.498C110.797 190.291 111.795 190.688 113.041 190.688ZM151.367 193.34C149.508 193.34 148.046 192.841 146.981 191.844C145.938 190.847 145.417 189.475 145.417 187.73V183.48C145.417 182.279 145.723 181.27 146.335 180.454C146.97 179.615 147.865 179.026 149.021 178.686L148.783 178.346C148.08 177.394 147.57 176.51 147.253 175.694C146.936 174.878 146.777 174.062 146.777 173.246C146.777 172.158 147.026 171.206 147.525 170.39C148.046 169.574 148.76 168.951 149.667 168.52C150.596 168.067 151.673 167.84 152.897 167.84C154.212 167.84 155.345 168.078 156.297 168.554C157.272 169.03 158.02 169.699 158.541 170.56C159.062 171.421 159.323 172.453 159.323 173.654H156.263C156.263 172.997 156.127 172.43 155.855 171.954C155.583 171.478 155.198 171.115 154.699 170.866C154.2 170.617 153.6 170.492 152.897 170.492C152.285 170.492 151.741 170.605 151.265 170.832C150.812 171.059 150.46 171.387 150.211 171.818C149.962 172.226 149.837 172.725 149.837 173.314C149.837 173.881 149.95 174.493 150.177 175.15C150.426 175.807 150.766 176.431 151.197 177.02L157.045 185.078L159.459 180.76H162.655L158.813 187.526L162.791 193H159.425L157.283 190.042C155.606 192.241 153.634 193.34 151.367 193.34ZM151.537 190.62C152.308 190.62 153.044 190.371 153.747 189.872C154.472 189.351 155.084 188.637 155.583 187.73L150.585 180.828C149.882 180.941 149.35 181.225 148.987 181.678C148.647 182.131 148.477 182.732 148.477 183.48V187.73C148.477 188.637 148.738 189.351 149.259 189.872C149.803 190.371 150.562 190.62 151.537 190.62ZM186.904 193V168.18H190.916L193.5 176.204C193.75 176.929 193.976 177.655 194.18 178.38C194.384 179.083 194.532 179.627 194.622 180.012C194.736 179.627 194.883 179.083 195.064 178.38C195.246 177.655 195.45 176.918 195.676 176.17L198.124 168.18H202.136V193H199.144V183.99C199.144 182.993 199.178 181.859 199.246 180.59C199.314 179.321 199.405 178.029 199.518 176.714C199.632 175.377 199.745 174.107 199.858 172.906C199.994 171.682 200.108 170.617 200.198 169.71L196.186 182.12H192.956L188.91 169.71C189.024 170.594 189.137 171.625 189.25 172.804C189.364 173.96 189.466 175.195 189.556 176.51C189.647 177.802 189.726 179.094 189.794 180.386C189.862 181.678 189.896 182.879 189.896 183.99V193H186.904ZM214.907 193.272C213.411 193.272 212.119 192.989 211.031 192.422C209.943 191.855 209.093 191.039 208.481 189.974C207.892 188.886 207.597 187.605 207.597 186.132V181.168C207.597 179.672 207.892 178.391 208.481 177.326C209.093 176.261 209.943 175.445 211.031 174.878C212.119 174.311 213.411 174.028 214.907 174.028C216.403 174.028 217.695 174.311 218.783 174.878C219.871 175.445 220.71 176.261 221.299 177.326C221.911 178.391 222.217 179.661 222.217 181.134V186.132C222.217 187.605 221.911 188.886 221.299 189.974C220.71 191.039 219.871 191.855 218.783 192.422C217.695 192.989 216.403 193.272 214.907 193.272ZM214.907 190.552C216.244 190.552 217.287 190.178 218.035 189.43C218.783 188.682 219.157 187.583 219.157 186.132V181.168C219.157 179.717 218.783 178.618 218.035 177.87C217.287 177.122 216.244 176.748 214.907 176.748C213.592 176.748 212.55 177.122 211.779 177.87C211.031 178.618 210.657 179.717 210.657 181.168V186.132C210.657 187.583 211.031 188.682 211.779 189.43C212.55 190.178 213.592 190.552 214.907 190.552ZM236.382 193.34C234.84 193.34 233.605 192.932 232.676 192.116C231.746 191.277 231.282 190.144 231.282 188.716L231.894 189.43H231.282V193H228.222V168.18H231.282V173.62L231.214 177.87H231.894L231.282 178.584C231.282 177.179 231.746 176.057 232.676 175.218C233.628 174.379 234.863 173.96 236.382 173.96C238.263 173.96 239.77 174.583 240.904 175.83C242.037 177.077 242.604 178.777 242.604 180.93V186.404C242.604 188.535 242.037 190.223 240.904 191.47C239.77 192.717 238.263 193.34 236.382 193.34ZM235.362 190.688C236.654 190.688 237.674 190.303 238.422 189.532C239.17 188.761 239.544 187.651 239.544 186.2V181.1C239.544 179.649 239.17 178.539 238.422 177.768C237.674 176.997 236.654 176.612 235.362 176.612C234.115 176.612 233.118 177.009 232.37 177.802C231.644 178.595 231.282 179.695 231.282 181.1V186.2C231.282 187.605 231.644 188.705 232.37 189.498C233.118 190.291 234.115 190.688 235.362 190.688ZM248.37 193V190.212H255V177.088H249.22V174.3H258.06V190.212H264.35V193H248.37ZM256.19 170.934C255.442 170.934 254.853 170.741 254.422 170.356C253.992 169.971 253.776 169.449 253.776 168.792C253.776 168.112 253.992 167.579 254.422 167.194C254.853 166.786 255.442 166.582 256.19 166.582C256.938 166.582 257.528 166.786 257.958 167.194C258.389 167.579 258.604 168.112 258.604 168.792C258.604 169.449 258.389 169.971 257.958 170.356C257.528 170.741 256.938 170.934 256.19 170.934ZM278.617 193C277.529 193 276.577 192.785 275.761 192.354C274.945 191.923 274.311 191.311 273.857 190.518C273.404 189.725 273.177 188.795 273.177 187.73V170.968H266.887V168.18H276.237V187.73C276.237 188.501 276.453 189.113 276.883 189.566C277.314 189.997 277.892 190.212 278.617 190.212H284.567V193H278.617ZM296.454 193.34C294.981 193.34 293.689 193.045 292.578 192.456C291.49 191.867 290.64 191.039 290.028 189.974C289.439 188.886 289.144 187.628 289.144 186.2V181.1C289.144 179.649 289.439 178.391 290.028 177.326C290.64 176.261 291.49 175.433 292.578 174.844C293.689 174.255 294.981 173.96 296.454 173.96C297.927 173.96 299.208 174.255 300.296 174.844C301.407 175.433 302.257 176.261 302.846 177.326C303.458 178.391 303.764 179.649 303.764 181.1V184.398H292.136V186.2C292.136 187.673 292.51 188.807 293.258 189.6C294.006 190.371 295.071 190.756 296.454 190.756C297.633 190.756 298.585 190.552 299.31 190.144C300.035 189.713 300.477 189.079 300.636 188.24H303.696C303.492 189.804 302.721 191.051 301.384 191.98C300.069 192.887 298.426 193.34 296.454 193.34ZM300.772 182.358V181.1C300.772 179.627 300.398 178.493 299.65 177.7C298.925 176.907 297.859 176.51 296.454 176.51C295.071 176.51 294.006 176.907 293.258 177.7C292.51 178.493 292.136 179.627 292.136 181.1V182.086H301.01L300.772 182.358ZM330.155 193V168.18H336.581C338.191 168.18 339.573 168.486 340.729 169.098C341.908 169.71 342.815 170.571 343.449 171.682C344.107 172.793 344.435 174.107 344.435 175.626V185.52C344.435 187.039 344.107 188.365 343.449 189.498C342.815 190.609 341.908 191.47 340.729 192.082C339.573 192.694 338.191 193 336.581 193H330.155ZM333.215 190.28H336.581C338.077 190.28 339.245 189.861 340.083 189.022C340.945 188.183 341.375 187.016 341.375 185.52V175.626C341.375 174.153 340.945 172.997 340.083 172.158C339.245 171.319 338.077 170.9 336.581 170.9H333.215V190.28ZM357.614 193.34C356.141 193.34 354.849 193.045 353.738 192.456C352.65 191.867 351.8 191.039 351.188 189.974C350.599 188.886 350.304 187.628 350.304 186.2V181.1C350.304 179.649 350.599 178.391 351.188 177.326C351.8 176.261 352.65 175.433 353.738 174.844C354.849 174.255 356.141 173.96 357.614 173.96C359.087 173.96 360.368 174.255 361.456 174.844C362.567 175.433 363.417 176.261 364.006 177.326C364.618 178.391 364.924 179.649 364.924 181.1V184.398H353.296V186.2C353.296 187.673 353.67 188.807 354.418 189.6C355.166 190.371 356.231 190.756 357.614 190.756C358.793 190.756 359.745 190.552 360.47 190.144C361.195 189.713 361.637 189.079 361.796 188.24H364.856C364.652 189.804 363.881 191.051 362.544 191.98C361.229 192.887 359.586 193.34 357.614 193.34ZM361.932 182.358V181.1C361.932 179.627 361.558 178.493 360.81 177.7C360.085 176.907 359.019 176.51 357.614 176.51C356.231 176.51 355.166 176.907 354.418 177.7C353.67 178.493 353.296 179.627 353.296 181.1V182.086H362.17L361.932 182.358ZM375.927 193L369.671 174.3H372.799L376.947 186.88C377.196 187.628 377.423 188.353 377.627 189.056C377.831 189.736 377.978 190.269 378.069 190.654C378.182 190.269 378.341 189.736 378.545 189.056C378.749 188.353 378.964 187.628 379.191 186.88L383.237 174.3H386.331L380.075 193H375.927ZM398.388 193.34C396.914 193.34 395.622 193.045 394.512 192.456C393.424 191.867 392.574 191.039 391.962 189.974C391.372 188.886 391.078 187.628 391.078 186.2V181.1C391.078 179.649 391.372 178.391 391.962 177.326C392.574 176.261 393.424 175.433 394.512 174.844C395.622 174.255 396.914 173.96 398.388 173.96C399.861 173.96 401.142 174.255 402.23 174.844C403.34 175.433 404.19 176.261 404.78 177.326C405.392 178.391 405.698 179.649 405.698 181.1V184.398H394.07V186.2C394.07 187.673 394.444 188.807 395.192 189.6C395.94 190.371 397.005 190.756 398.388 190.756C399.566 190.756 400.518 190.552 401.244 190.144C401.969 189.713 402.411 189.079 402.57 188.24H405.63C405.426 189.804 404.655 191.051 403.318 191.98C402.003 192.887 400.36 193.34 398.388 193.34ZM402.706 182.358V181.1C402.706 179.627 402.332 178.493 401.584 177.7C400.858 176.907 399.793 176.51 398.388 176.51C397.005 176.51 395.94 176.907 395.192 177.7C394.444 178.493 394.07 179.627 394.07 181.1V182.086H402.944L402.706 182.358ZM421.324 193C420.236 193 419.284 192.785 418.468 192.354C417.652 191.923 417.018 191.311 416.564 190.518C416.111 189.725 415.884 188.795 415.884 187.73V170.968H409.594V168.18H418.944V187.73C418.944 188.501 419.16 189.113 419.59 189.566C420.021 189.997 420.599 190.212 421.324 190.212H427.274V193H421.324ZM439.161 193.272C437.665 193.272 436.373 192.989 435.285 192.422C434.197 191.855 433.347 191.039 432.735 189.974C432.146 188.886 431.851 187.605 431.851 186.132V181.168C431.851 179.672 432.146 178.391 432.735 177.326C433.347 176.261 434.197 175.445 435.285 174.878C436.373 174.311 437.665 174.028 439.161 174.028C440.657 174.028 441.949 174.311 443.037 174.878C444.125 175.445 444.964 176.261 445.553 177.326C446.165 178.391 446.471 179.661 446.471 181.134V186.132C446.471 187.605 446.165 188.886 445.553 189.974C444.964 191.039 444.125 191.855 443.037 192.422C441.949 192.989 440.657 193.272 439.161 193.272ZM439.161 190.552C440.498 190.552 441.541 190.178 442.289 189.43C443.037 188.682 443.411 187.583 443.411 186.132V181.168C443.411 179.717 443.037 178.618 442.289 177.87C441.541 177.122 440.498 176.748 439.161 176.748C437.846 176.748 436.804 177.122 436.033 177.87C435.285 178.618 434.911 179.717 434.911 181.168V186.132C434.911 187.583 435.285 188.682 436.033 189.43C436.804 190.178 437.846 190.552 439.161 190.552ZM452.476 199.12V174.3H455.536V177.87H456.148L455.536 178.584C455.536 177.156 456 176.034 456.93 175.218C457.882 174.379 459.128 173.96 460.67 173.96C462.551 173.96 464.047 174.583 465.158 175.83C466.291 177.054 466.858 178.743 466.858 180.896V186.37C466.858 187.798 466.597 189.033 466.076 190.076C465.577 191.119 464.863 191.923 463.934 192.49C463.027 193.057 461.939 193.34 460.67 193.34C459.151 193.34 457.916 192.921 456.964 192.082C456.012 191.243 455.536 190.121 455.536 188.716L456.148 189.43H455.468L455.536 193.68V199.12H452.476ZM459.65 190.688C460.942 190.688 461.95 190.303 462.676 189.532C463.424 188.761 463.798 187.651 463.798 186.2V181.1C463.798 179.649 463.424 178.539 462.676 177.768C461.95 176.997 460.942 176.612 459.65 176.612C458.403 176.612 457.406 177.009 456.658 177.802C455.91 178.595 455.536 179.695 455.536 181.1V186.2C455.536 187.605 455.91 188.705 456.658 189.498C457.406 190.291 458.403 190.688 459.65 190.688ZM479.934 193.34C478.461 193.34 477.169 193.045 476.058 192.456C474.97 191.867 474.12 191.039 473.508 189.974C472.919 188.886 472.624 187.628 472.624 186.2V181.1C472.624 179.649 472.919 178.391 473.508 177.326C474.12 176.261 474.97 175.433 476.058 174.844C477.169 174.255 478.461 173.96 479.934 173.96C481.408 173.96 482.688 174.255 483.776 174.844C484.887 175.433 485.737 176.261 486.326 177.326C486.938 178.391 487.244 179.649 487.244 181.1V184.398H475.616V186.2C475.616 187.673 475.99 188.807 476.738 189.6C477.486 190.371 478.552 190.756 479.934 190.756C481.113 190.756 482.065 190.552 482.79 190.144C483.516 189.713 483.958 189.079 484.116 188.24H487.176C486.972 189.804 486.202 191.051 484.864 191.98C483.55 192.887 481.906 193.34 479.934 193.34ZM484.252 182.358V181.1C484.252 179.627 483.878 178.493 483.13 177.7C482.405 176.907 481.34 176.51 479.934 176.51C478.552 176.51 477.486 176.907 476.738 177.7C475.99 178.493 475.616 179.627 475.616 181.1V182.086H484.49L484.252 182.358ZM493.895 193V174.3H496.887V177.87H497.601L496.615 180.08C496.615 178.063 497.046 176.544 497.907 175.524C498.791 174.481 500.094 173.96 501.817 173.96C503.789 173.96 505.353 174.583 506.509 175.83C507.688 177.054 508.277 178.72 508.277 180.828V181.95H505.217V181.1C505.217 179.627 504.854 178.505 504.129 177.734C503.426 176.941 502.418 176.544 501.103 176.544C499.811 176.544 498.791 176.941 498.043 177.734C497.318 178.527 496.955 179.649 496.955 181.1V193H493.895Z" fill="#F7F7F7"/>
<path d="M80.544 96.61C77.616 96.61 75.0947 96.122 72.98 95.146C70.906 94.17 69.2997 92.767 68.161 90.937C67.0223 89.107 66.4327 86.9313 66.392 84.41H71.882C71.882 86.6467 72.6343 88.4157 74.139 89.717C75.6843 91.0183 77.8193 91.669 80.544 91.669C83.106 91.669 85.0987 91.0387 86.522 89.778C87.986 88.5173 88.718 86.7687 88.718 84.532C88.718 82.7427 88.23 81.177 87.254 79.835C86.3187 78.493 84.9563 77.5577 83.167 77.029L77.128 75.138C74.078 74.2027 71.7193 72.637 70.052 70.441C68.4253 68.245 67.612 65.6627 67.612 62.694C67.612 60.2947 68.1407 58.2207 69.198 56.472C70.296 54.6827 71.821 53.3 73.773 52.324C75.725 51.3073 78.0227 50.799 80.666 50.799C84.57 50.799 87.7013 51.897 90.06 54.093C92.4187 56.2483 93.6183 59.1357 93.659 62.755H88.169C88.169 60.559 87.498 58.851 86.156 57.631C84.8547 56.3703 83.0043 55.74 80.605 55.74C78.2463 55.74 76.396 56.3093 75.054 57.448C73.7527 58.5867 73.102 60.1727 73.102 62.206C73.102 64.036 73.59 65.622 74.566 66.964C75.542 68.306 76.945 69.2617 78.775 69.831L84.875 71.783C87.8437 72.7183 90.1413 74.3043 91.768 76.541C93.3947 78.7777 94.208 81.4007 94.208 84.41C94.208 86.85 93.6387 88.985 92.5 90.815C91.3613 92.645 89.755 94.0683 87.681 95.085C85.6477 96.1017 83.2687 96.61 80.544 96.61ZM104.188 96V51.47H109.678V62.45V68.855H110.837L109.678 70.136C109.678 67.4927 110.471 65.4593 112.057 64.036C113.643 62.572 115.839 61.84 118.645 61.84C122.021 61.84 124.705 62.877 126.697 64.951C128.69 67.025 129.686 69.8513 129.686 73.43V96H124.196V74.04C124.196 71.6407 123.546 69.7903 122.244 68.489C120.984 67.147 119.255 66.476 117.059 66.476C114.782 66.476 112.972 67.1877 111.63 68.611C110.329 70.0343 109.678 72.0473 109.678 74.65V96H104.188ZM150.524 96.61C146.986 96.61 144.201 95.7153 142.167 93.926C140.134 92.096 139.117 89.6357 139.117 86.545C139.117 83.4137 140.134 80.9533 142.167 79.164C144.201 77.3747 146.946 76.48 150.402 76.48H160.772V73.125C160.772 71.051 160.142 69.465 158.881 68.367C157.661 67.2283 155.913 66.659 153.635 66.659C151.643 66.659 149.975 67.086 148.633 67.94C147.291 68.7533 146.519 69.8717 146.315 71.295H140.825C141.191 68.4077 142.554 66.11 144.912 64.402C147.271 62.694 150.219 61.84 153.757 61.84C157.621 61.84 160.671 62.8363 162.907 64.829C165.144 66.8217 166.262 69.526 166.262 72.942V96H160.894V89.595H159.979L160.894 88.68C160.894 91.12 159.939 93.0517 158.027 94.475C156.157 95.8983 153.656 96.61 150.524 96.61ZM151.866 92.279C154.469 92.279 156.604 91.6283 158.271 90.327C159.939 89.0257 160.772 87.3583 160.772 85.325V80.567H150.524C148.694 80.567 147.251 81.0753 146.193 82.092C145.136 83.1087 144.607 84.4913 144.607 86.24C144.607 88.1107 145.238 89.595 146.498 90.693C147.8 91.7503 149.589 92.279 151.866 92.279ZM189.968 96.61C186.104 96.61 183.014 95.4713 180.696 93.194C178.378 90.876 177.219 87.7447 177.219 83.8V62.45H182.709V83.8C182.709 86.3213 183.359 88.2937 184.661 89.717C185.962 91.0997 187.731 91.791 189.968 91.791C192.245 91.791 194.034 91.0997 195.336 89.717C196.678 88.2937 197.349 86.3213 197.349 83.8V62.45H202.839V83.8C202.839 87.7447 201.659 90.876 199.301 93.194C196.942 95.4713 193.831 96.61 189.968 96.61ZM231.18 96C229.228 96 227.52 95.6137 226.056 94.841C224.592 94.0683 223.453 92.9703 222.64 91.547C221.826 90.1237 221.42 88.4563 221.42 86.545V56.472H210.135V51.47H226.91V86.545C226.91 87.9277 227.296 89.0257 228.069 89.839C228.841 90.6117 229.878 90.998 231.18 90.998H241.855V96H231.18ZM69.015 150V105.47H74.505V144.998H94.635V150H69.015ZM113.948 150.61C110.41 150.61 107.625 149.715 105.591 147.926C103.558 146.096 102.541 143.636 102.541 140.545C102.541 137.414 103.558 134.953 105.591 133.164C107.625 131.375 110.37 130.48 113.826 130.48H124.196V127.125C124.196 125.051 123.566 123.465 122.305 122.367C121.085 121.228 119.337 120.659 117.059 120.659C115.067 120.659 113.399 121.086 112.057 121.94C110.715 122.753 109.943 123.872 109.739 125.295H104.249C104.615 122.408 105.978 120.11 108.336 118.402C110.695 116.694 113.643 115.84 117.181 115.84C121.045 115.84 124.095 116.836 126.331 118.829C128.568 120.822 129.686 123.526 129.686 126.942V150H124.318V143.595H123.403L124.318 142.68C124.318 145.12 123.363 147.052 121.451 148.475C119.581 149.898 117.08 150.61 113.948 150.61ZM115.29 146.279C117.893 146.279 120.028 145.628 121.695 144.327C123.363 143.026 124.196 141.358 124.196 139.325V134.567H113.948C112.118 134.567 110.675 135.075 109.617 136.092C108.56 137.109 108.031 138.491 108.031 140.24C108.031 142.111 108.662 143.595 109.922 144.693C111.224 145.75 113.013 146.279 115.29 146.279ZM149.731 150L138.507 116.45H144.119L151.561 139.02C152.009 140.362 152.415 141.663 152.781 142.924C153.147 144.144 153.412 145.1 153.574 145.791C153.778 145.1 154.062 144.144 154.428 142.924C154.794 141.663 155.181 140.362 155.587 139.02L162.846 116.45H168.397L157.173 150H149.731ZM190.029 150.488C187.345 150.488 185.027 149.98 183.075 148.963C181.123 147.946 179.598 146.482 178.5 144.571C177.442 142.619 176.914 140.321 176.914 137.678V128.772C176.914 126.088 177.442 123.79 178.5 121.879C179.598 119.968 181.123 118.504 183.075 117.487C185.027 116.47 187.345 115.962 190.029 115.962C192.713 115.962 195.031 116.47 196.983 117.487C198.935 118.504 200.439 119.968 201.497 121.879C202.595 123.79 203.144 126.068 203.144 128.711V137.678C203.144 140.321 202.595 142.619 201.497 144.571C200.439 146.482 198.935 147.946 196.983 148.963C195.031 149.98 192.713 150.488 190.029 150.488ZM190.029 145.608C192.428 145.608 194.299 144.937 195.641 143.595C196.983 142.253 197.654 140.281 197.654 137.678V128.772C197.654 126.169 196.983 124.197 195.641 122.855C194.299 121.513 192.428 120.842 190.029 120.842C187.67 120.842 185.799 121.513 184.417 122.855C183.075 124.197 182.404 126.169 182.404 128.772V137.678C182.404 140.281 183.075 142.253 184.417 143.595C185.799 144.937 187.67 145.608 190.029 145.608ZM226.849 150.61C224.165 150.61 221.806 150.102 219.773 149.085C217.78 148.068 216.235 146.604 215.137 144.693C214.039 142.741 213.49 140.443 213.49 137.8V128.65C213.49 125.966 214.039 123.668 215.137 121.757C216.235 119.846 217.78 118.382 219.773 117.365C221.806 116.348 224.165 115.84 226.849 115.84C230.712 115.84 233.823 116.877 236.182 118.951C238.54 121.025 239.781 123.851 239.903 127.43H234.413C234.291 125.275 233.559 123.628 232.217 122.489C230.915 121.31 229.126 120.72 226.849 120.72C224.449 120.72 222.538 121.411 221.115 122.794C219.691 124.136 218.98 126.068 218.98 128.589V137.8C218.98 140.321 219.691 142.273 221.115 143.656C222.538 145.039 224.449 145.73 226.849 145.73C229.126 145.73 230.915 145.14 232.217 143.961C233.559 142.782 234.291 141.135 234.413 139.02H239.903C239.781 142.599 238.54 145.425 236.182 147.499C233.823 149.573 230.712 150.61 226.849 150.61ZM250.493 150V105.47H255.983V116.45V122.855H257.142L255.983 124.136C255.983 121.493 256.776 119.459 258.362 118.036C259.948 116.572 262.144 115.84 264.95 115.84C268.325 115.84 271.009 116.877 273.002 118.951C274.995 121.025 275.991 123.851 275.991 127.43V150H270.501V128.04C270.501 125.641 269.85 123.79 268.549 122.489C267.288 121.147 265.56 120.476 263.364 120.476C261.087 120.476 259.277 121.188 257.935 122.611C256.634 124.034 255.983 126.047 255.983 128.65V150H250.493ZM287.252 150V105.47H292.742V130.297H299.208L308.968 116.45H315.251L303.966 132.432L315.434 150H309.029L299.269 135.055H292.742V150H287.252ZM323.218 150V144.998H335.113V121.452H324.743V116.45H340.603V144.998H351.888V150H323.218ZM337.248 110.411C335.906 110.411 334.849 110.065 334.076 109.374C333.304 108.683 332.917 107.747 332.917 106.568C332.917 105.348 333.304 104.392 334.076 103.701C334.849 102.969 335.906 102.603 337.248 102.603C338.59 102.603 339.648 102.969 340.42 103.701C341.193 104.392 341.579 105.348 341.579 106.568C341.579 107.747 341.193 108.683 340.42 109.374C339.648 110.065 338.59 110.411 337.248 110.411ZM360.221 150V116.45H365.711V122.855H366.87L365.711 124.136C365.711 121.493 366.504 119.459 368.09 118.036C369.676 116.572 371.872 115.84 374.678 115.84C378.054 115.84 380.738 116.877 382.73 118.951C384.723 121.025 385.719 123.851 385.719 127.43V150H380.229V128.04C380.229 125.641 379.579 123.811 378.277 122.55C377.017 121.249 375.288 120.598 373.092 120.598C370.815 120.598 369.005 121.289 367.663 122.672C366.362 124.055 365.711 126.047 365.711 128.65V150H360.221Z" fill="#F7F7F7"/>
<g clip-path="url(#clip0_5_209)">
<path d="M294.5 586C423.458 586 528 580.005 528 572.609C528 565.214 423.458 559.218 294.5 559.218C165.542 559.218 61 565.214 61 572.609C61 580.005 165.542 586 294.5 586Z" fill="#F2F2F2" fill-opacity="0.75"/>
<path d="M486.15 318H135.366V329.128H486.15V318Z" fill="#F2F2F2" fill-opacity="0.75"/>
<path d="M144.753 326.28C146.348 326.28 147.641 324.99 147.641 323.4C147.641 321.809 146.348 320.52 144.753 320.52C143.158 320.52 141.865 321.809 141.865 323.4C141.865 324.99 143.158 326.28 144.753 326.28Z" fill="#101010"/>
<path d="M154.14 326.28C155.735 326.28 157.028 324.99 157.028 323.4C157.028 321.809 155.735 320.52 154.14 320.52C152.545 320.52 151.252 321.809 151.252 323.4C151.252 324.99 152.545 326.28 154.14 326.28Z" fill="#101010"/>
<path d="M163.527 326.28C165.122 326.28 166.415 324.99 166.415 323.4C166.415 321.809 165.122 320.52 163.527 320.52C161.932 320.52 160.638 321.809 160.638 323.4C160.638 324.99 161.932 326.28 163.527 326.28Z" fill="#101010"/>
<path d="M135.615 493.995L135.366 494.208V569.274H486.15V437.419L481.969 437.735L135.615 493.995Z" fill="#3F3D56"/>
<path d="M258.638 392.437H160.681V396.375H258.638V392.437Z" fill="#3F3D56"/>
<path d="M258.638 401.102H160.681V405.04H258.638V401.102Z" fill="#3F3D56"/>
<path d="M193.86 409.766H160.681V413.705H193.86V409.766Z" fill="#3F3D56"/>
<path d="M458.401 501.778H360.445V505.716H458.401V501.778Z" fill="white"/>
<path d="M458.401 510.443H360.445V514.381H458.401V510.443Z" fill="white"/>
<path d="M393.624 519.107H360.445V523.046H393.624V519.107Z" fill="white"/>
<path d="M299.584 565.643C301.712 565.643 303.437 563.922 303.437 561.8C303.437 559.678 301.712 557.958 299.584 557.958C297.455 557.958 295.73 559.678 295.73 561.8C295.73 563.922 297.455 565.643 299.584 565.643Z" fill="#F2F2F2"/>
<path d="M310.758 566.027C312.886 566.027 314.611 564.307 314.611 562.185C314.611 560.063 312.886 558.342 310.758 558.342C308.63 558.342 306.905 560.063 306.905 562.185C306.905 564.307 308.63 566.027 310.758 566.027Z" fill="#F2F2F2"/>
<path d="M321.932 566.411C324.06 566.411 325.785 564.691 325.785 562.569C325.785 560.447 324.06 558.727 321.932 558.727C319.804 558.727 318.079 560.447 318.079 562.569C318.079 564.691 319.804 566.411 321.932 566.411Z" fill="#F2F2F2"/>
<path d="M310.793 565.258C312.496 565.258 313.876 563.882 313.876 562.185C313.876 560.487 312.496 559.111 310.793 559.111C309.091 559.111 307.711 560.487 307.711 562.185C307.711 563.882 309.091 565.258 310.793 565.258Z" fill="#3F3D56"/>
<path d="M226.162 437.518H192.984V445.066H226.162V437.518Z" fill="#3F3D56"/>
<path d="M423.376 539.654H390.197V547.202H423.376V539.654Z" fill="white"/>
<path opacity="0.3" d="M209.76 464.218C222.436 464.218 232.711 453.971 232.711 441.332C232.711 428.693 222.436 418.447 209.76 418.447C197.084 418.447 186.808 428.693 186.808 441.332C186.808 453.971 197.084 464.218 209.76 464.218Z" fill="#101010"/>
<path opacity="0.3" d="M209.76 456.589C218.21 456.589 225.061 449.758 225.061 441.332C225.061 432.906 218.21 426.075 209.76 426.075C201.309 426.075 194.459 432.906 194.459 441.332C194.459 449.758 201.309 456.589 209.76 456.589Z" fill="#101010"/>
<path d="M209.76 451.927C215.628 451.927 220.386 447.184 220.386 441.332C220.386 435.481 215.628 430.737 209.76 430.737C203.892 430.737 199.134 435.481 199.134 441.332C199.134 447.184 203.892 451.927 209.76 451.927Z" fill="#101010"/>
<path opacity="0.3" d="M402.882 407.501C415.558 407.501 425.834 397.255 425.834 384.615C425.834 371.976 415.558 361.73 402.882 361.73C390.206 361.73 379.931 371.976 379.931 384.615C379.931 397.255 390.206 407.501 402.882 407.501Z" fill="#101010"/>
<path opacity="0.3" d="M402.882 399.872C411.333 399.872 418.183 393.042 418.183 384.615C418.183 376.189 411.333 369.359 402.882 369.359C394.432 369.359 387.581 376.189 387.581 384.615C387.581 393.042 394.432 399.872 402.882 399.872Z" fill="#101010"/>
<path d="M402.882 395.21C408.751 395.21 413.508 390.467 413.508 384.615C413.508 378.764 408.751 374.02 402.882 374.02C397.014 374.02 392.257 378.764 392.257 384.615C392.257 390.467 397.014 395.21 402.882 395.21Z" fill="#101010"/>
<path opacity="0.3" d="M406.973 566.354C419.649 566.354 429.925 556.108 429.925 543.469C429.925 530.829 419.649 520.583 406.973 520.583C394.297 520.583 384.022 530.829 384.022 543.469C384.022 556.108 394.297 566.354 406.973 566.354Z" fill="#101010"/>
<path opacity="0.3" d="M406.973 558.725C415.424 558.725 422.274 551.895 422.274 543.469C422.274 535.042 415.424 528.212 406.973 528.212C398.523 528.212 391.672 535.042 391.672 543.469C391.672 551.895 398.523 558.725 406.973 558.725Z" fill="#101010"/>
<path d="M406.973 554.064C412.842 554.064 417.599 549.32 417.599 543.469C417.599 537.617 412.842 532.874 406.973 532.874C401.105 532.874 396.347 537.617 396.347 543.469C396.347 549.32 401.105 554.064 406.973 554.064Z" fill="#101010"/>
<path d="M99.2195 364.348L108.666 364.713L109.137 352.602L99.6905 352.237L99.2195 364.348Z" fill="#101010"/>
<path d="M142.304 394.651C142.304 394.651 155.386 388.418 155.176 393.801C154.967 399.183 141.99 402.724 141.99 402.724L142.304 394.651Z" fill="#FFB9B9"/>
<path d="M135.126 440.193C135.126 440.193 141.298 455.255 143.579 466.124C145.859 476.994 149.332 491.952 144.865 502.56C140.397 513.169 127.697 544.347 127.566 547.711C127.435 551.075 128.654 554.491 125.955 554.387C123.256 554.282 108.568 549.672 107.972 547.627C107.376 545.583 112.983 540.409 112.983 540.409L126.83 497.146L112.383 468.961L101.963 511.009L99.9219 563.487C99.9219 563.487 89.9053 560.405 88.4512 563.044C88.4512 563.044 83.9634 556.806 83.3933 554.089C82.8232 551.371 85.5127 499.592 85.5127 499.592C85.5127 499.592 76.3183 440.614 83.7406 440.901C91.1629 441.188 120.235 423.445 135.126 440.193Z" fill="#2F2E41"/>
<path d="M126.06 551.696C126.06 551.696 132.906 566.784 133.555 567.483C134.203 568.182 138.665 575.093 135.291 574.962C131.918 574.832 123.951 571.155 118.088 565.538C112.224 559.92 104.494 550.188 105.195 549.541C105.896 548.894 110.697 547.059 110.697 547.059L126.06 551.696Z" fill="#2F2E41"/>
<path d="M98.7033 560.071C98.7033 560.071 99.1164 566.825 100.361 569.569C101.606 572.312 101.449 576.349 98.0753 576.219C94.7015 576.088 85.9821 574.403 85.9821 574.403C85.9821 574.403 85.4643 570.34 86.1653 569.694C86.8662 569.047 89.853 561.75 88.582 559.68C87.311 557.609 98.7033 560.071 98.7033 560.071Z" fill="#2F2E41"/>
<path d="M93.712 340.888C93.712 340.888 86.5197 352.065 83.716 354.652C80.9124 357.238 88.8001 362.934 88.8001 362.934L102.918 364.827C102.918 364.827 102.74 352.018 103.467 350.699C104.194 349.379 93.712 340.888 93.712 340.888Z" fill="#FFB9B9"/>
<path d="M105.983 355.513C105.983 355.513 103.074 360.791 100.375 360.686C97.6765 360.582 83.716 354.652 83.1198 352.607C82.5235 350.563 78.4956 367.252 78.4956 367.252L112.656 427.195L120.988 421.453L116.951 386.258L113.635 367.263L105.983 355.513Z" fill="#101010"/>
<path d="M81.8598 409.159C83.2225 412.001 84.0735 414.965 83.9555 418C83.9503 418.134 83.9451 418.269 83.9331 418.403C83.6098 424.63 81.3092 431.832 80.4838 437.069C79.8849 440.826 80.0554 443.568 82.2603 444.213C87.606 445.767 81.4809 446.878 102.163 453.742C122.844 460.606 126.454 454.681 126.506 453.336C126.558 451.99 123.577 441.768 124.278 441.121C124.979 440.474 134.085 449.586 136.837 448.345C139.588 447.103 137.151 440.271 137.151 440.271C137.151 440.271 130.953 425.881 131.083 422.517C131.214 419.153 121.695 403.287 121.695 403.287L115.22 361.26C115.22 361.26 112.73 355.773 109.383 354.97C106.035 354.167 103.258 356.081 103.258 356.081L108.859 368.426L114.77 390.217L113.781 398.264C113.781 398.264 106.908 383.849 102.394 378.284C97.8803 372.718 88.2562 359.544 88.2562 359.544C88.2562 359.544 86.0093 351.984 87.7055 349.725C89.4019 347.459 80.6302 347.12 76.8901 356.409C74.9078 361.332 71.6895 368.674 69.6734 375.509C67.8769 381.564 67.0283 387.225 68.8081 390.461C71.5284 395.404 78.3713 401.902 81.8598 409.159Z" fill="#3F3D56"/>
<path opacity="0.1" d="M68.8081 390.461C71.5284 395.404 78.3712 401.902 81.8598 409.159C82.771 405.886 83.8825 402.499 83.8825 402.499C83.8825 402.499 88.1459 379.754 75.535 373.876C73.4454 373.674 71.3556 374.257 69.6734 375.509C67.8769 381.564 67.0282 387.225 68.8081 390.461Z" fill="black"/>
<path d="M118.87 389.028L129.562 392.137L144.406 392.71L145.934 405.572L121.538 407.324C121.538 407.324 115.444 390.243 118.87 389.028Z" fill="#3F3D56"/>
<path d="M101.437 432.272C101.437 432.272 115.74 434.639 112.475 438.93C109.211 443.222 96.54 438.71 96.54 438.71L101.437 432.272Z" fill="#FFB9B9"/>
<path opacity="0.1" d="M83.933 418.403C83.6098 424.63 81.3091 431.832 80.4838 437.069C85.0401 441.369 89.373 445.162 91.0059 445.225C94.3796 445.355 99.8038 444.891 101.802 445.642C103.8 446.393 104.972 433.636 104.972 433.636C104.972 433.636 103.779 429.547 98.4598 427.32C94.8693 425.813 87.9867 421.727 83.933 418.403Z" fill="black"/>
<path d="M75.692 369.839C75.692 369.839 64.2735 368.05 64.8904 386.941C65.5073 405.831 63.6868 417.89 68.2792 421.436C72.8716 424.983 87.7891 441.058 91.1629 441.188C94.5366 441.318 99.9608 440.854 101.959 441.605C103.957 442.357 105.129 429.599 105.129 429.599C105.129 429.599 103.936 425.51 98.6169 423.283C93.2974 421.056 80.7649 413.159 80.8695 410.468C80.9742 407.777 84.0395 398.462 84.0395 398.462C84.0395 398.462 88.3029 375.717 75.692 369.839Z" fill="#3F3D56"/>
<path d="M103.781 357.438C111.986 357.438 118.637 350.806 118.637 342.625C118.637 334.444 111.986 327.812 103.781 327.812C95.5764 327.812 88.9253 334.444 88.9253 342.625C88.9253 350.806 95.5764 357.438 103.781 357.438Z" fill="#FFB9B9"/>
<path d="M113.784 321.394C114.142 321.702 114.571 321.916 115.033 322.019C115.265 322.06 115.503 322.008 115.697 321.874C115.89 321.741 116.023 321.536 116.066 321.305C116.406 322.008 116.789 322.757 117.483 323.118C118.177 323.479 119.25 323.176 119.35 322.402C119.451 322.99 119.712 323.539 120.104 323.989C120.534 324.398 121.315 324.502 121.691 324.042C121.387 325.698 121.575 327.401 121.479 329.082C121.384 330.762 120.934 332.544 119.661 333.65C117.804 335.261 115.011 334.864 112.567 334.558C112.198 334.481 111.815 334.502 111.456 334.619C110.541 335.007 110.583 336.277 110.57 337.269C110.496 339.008 109.805 340.665 108.621 341.945C107.438 343.225 105.837 344.045 104.105 344.26C103.135 344.41 102.145 344.169 101.354 343.591C100.66 343.005 100.306 342.049 99.5107 341.609C98.2178 340.892 96.6496 341.937 95.7043 343.071C94.759 344.206 93.8273 345.601 92.3629 345.809C90.426 346.084 88.9509 344.115 88.2271 342.303C87.2286 339.763 86.7502 337.049 86.8202 334.322C86.8901 331.595 87.507 328.909 88.6345 326.423C92.6786 317.633 106.493 316.243 113.784 321.394Z" fill="#2F2E41"/>
<path d="M470.397 556.927C475.629 565.823 486.181 569.346 486.181 569.346C486.181 569.346 488.25 558.444 483.018 549.547C477.786 540.65 467.234 537.128 467.234 537.128C467.234 537.128 465.165 548.03 470.397 556.927Z" fill="#F2F2F2"/>
<path d="M473.662 553.822C482.71 558.819 486.5 569.25 486.5 569.25C486.5 569.25 475.621 571.581 466.573 566.584C457.525 561.587 453.734 551.155 453.734 551.155C453.734 551.155 464.613 548.825 473.662 553.822Z" fill="#101010"/>
</g>
<path d="M856.338 52H1043.47C1072.58 52 1096.17 75.5453 1096.17 104.59V531.324C1096.17 560.369 1072.58 583.914 1043.47 583.914H856.338C827.233 583.914 803.638 560.369 803.638 531.324V104.59C803.638 75.5453 827.233 52 856.338 52Z" fill="#3F3D56"/>
<path d="M808.573 104.594V531.325C808.588 543.962 813.625 556.078 822.58 565.014C831.534 573.95 843.675 578.977 856.339 578.991H1043.47C1056.14 578.977 1068.28 573.95 1077.23 565.014C1086.19 556.078 1091.22 543.962 1091.24 531.325V104.594C1091.22 91.9561 1086.19 79.8405 1077.23 70.9045C1068.28 61.9685 1056.14 56.9418 1043.47 56.9272H1019V65.3626C1019 69.1815 1017.48 72.8439 1014.78 75.5442C1012.07 78.2446 1008.4 79.7617 1004.57 79.7619H895.239C891.412 79.7617 887.742 78.2446 885.036 75.5442C882.33 72.8439 880.81 69.1815 880.81 65.3626V56.9272H856.339C843.675 56.9418 831.534 61.9685 822.58 70.9045C813.625 79.8405 808.588 91.9561 808.573 104.594Z" fill="white" fill-opacity="0.75"/>
<path d="M1097.52 159.905C1098.47 159.904 1099.38 159.526 1100.06 158.855C1100.73 158.183 1101.11 157.273 1101.11 156.323V149.159C1101.11 148.209 1100.73 147.298 1100.06 146.627C1099.38 145.955 1098.47 145.578 1097.52 145.578C1096.57 145.578 1095.66 145.955 1094.98 146.627C1094.31 147.298 1093.93 148.209 1093.93 149.159V156.323C1093.93 157.273 1094.31 158.183 1094.98 158.855C1095.66 159.526 1096.57 159.904 1097.52 159.905Z" fill="#3F3D56"/>
<path d="M1097.52 196.639C1098.47 196.638 1099.38 196.26 1100.06 195.589C1100.73 194.917 1101.11 194.007 1101.11 193.057V173.337C1101.11 172.387 1100.73 171.476 1100.06 170.805C1099.38 170.133 1098.47 169.755 1097.52 169.755C1096.57 169.755 1095.66 170.133 1094.98 170.805C1094.31 171.476 1093.93 172.387 1093.93 173.337V193.057C1093.93 194.007 1094.31 194.917 1094.98 195.589C1095.66 196.26 1096.57 196.638 1097.52 196.639Z" fill="#3F3D56"/>
<path d="M1097.52 226.171C1098.47 226.17 1099.38 225.792 1100.06 225.12C1100.73 224.449 1101.11 223.538 1101.11 222.589V202.869C1101.11 201.919 1100.73 201.008 1100.06 200.336C1099.38 199.664 1098.47 199.287 1097.52 199.287C1096.57 199.287 1095.66 199.664 1094.98 200.336C1094.31 201.008 1093.93 201.919 1093.93 202.869V222.589C1093.93 223.538 1094.31 224.449 1094.98 225.12C1095.66 225.792 1096.57 226.17 1097.52 226.171Z" fill="#3F3D56"/>
<path d="M803.19 210.052C804.141 210.051 805.054 209.673 805.727 209.002C806.4 208.33 806.778 207.42 806.779 206.47V158.353C806.779 157.403 806.401 156.492 805.728 155.82C805.055 155.148 804.142 154.771 803.19 154.771C802.238 154.771 801.325 155.148 800.652 155.82C799.979 156.492 799.6 157.403 799.6 158.353V206.47C799.601 207.42 799.98 208.33 800.653 209.002C801.326 209.673 802.238 210.051 803.19 210.052Z" fill="#3F3D56"/>
<path d="M942.196 68.4283H970.013C970.608 68.4283 971.179 68.1924 971.6 67.7726C972.02 67.3527 972.257 66.7833 972.257 66.1896C972.257 65.5958 972.02 65.0264 971.6 64.6066C971.179 64.1867 970.608 63.9509 970.013 63.9509H942.196C941.601 63.9509 941.03 64.1867 940.609 64.6066C940.189 65.0264 939.952 65.5958 939.952 66.1896C939.952 66.7833 940.189 67.3527 940.609 67.7726C941.03 68.1924 941.601 68.4283 942.196 68.4283Z" fill="white"/>
<path d="M927.838 67.9805C926.847 67.9805 926.043 67.1787 926.043 66.1896C926.043 65.2005 926.847 64.3986 927.838 64.3986C928.829 64.3986 929.633 65.2005 929.633 66.1896C929.633 67.1787 928.829 67.9805 927.838 67.9805Z" fill="white"/>
<path d="M712.201 561.543C711.546 561.566 710.899 561.389 710.348 561.033C709.798 560.678 709.37 560.163 709.122 559.556C708.875 558.95 708.821 558.283 708.966 557.645C709.112 557.007 709.45 556.429 709.936 555.989C710.02 555.67 710.08 555.441 710.164 555.122C709.552 553.527 708.477 552.151 707.076 551.169C705.676 550.188 704.013 549.647 702.302 549.614C700.591 549.582 698.909 550.06 697.472 550.988C696.035 551.915 694.909 553.25 694.237 554.821C690.362 563.638 685.37 572.756 687.716 582.529C671.928 548.298 677.813 505.959 701.904 477.042C708.52 473.486 713.917 467.108 715.377 459.657C712.109 460.727 708.072 458.045 710.554 454.644C711.628 453.345 712.713 452.057 713.787 450.758C701.538 437.489 686.597 458.018 700.048 475.898C695.539 481.43 691.622 487.418 688.361 493.763C689.165 487 688.348 480.143 685.978 473.757C683.571 467.803 679.001 462.764 674.984 457.599C670.1 451.305 659.897 454.09 659.156 462.011C663.704 463.551 664.234 470.134 659.007 470.984C660.233 485.745 669.758 499.39 682.994 505.984C677.952 519.687 675.895 534.305 676.96 548.864C674.775 531.84 656.526 527.54 643.808 520.661C642.999 520.133 642.054 519.851 641.088 519.85C640.121 519.848 639.175 520.127 638.365 520.653C637.555 521.179 636.915 521.929 636.525 522.811C636.134 523.694 636.01 524.67 636.166 525.622C637.923 526.355 639.604 527.26 641.182 528.324C641.921 528.83 642.486 529.553 642.797 530.392C643.109 531.231 643.154 532.145 642.924 533.01C642.695 533.876 642.203 534.649 641.516 535.224C640.829 535.799 639.98 536.148 639.087 536.223C645.378 552.198 661.935 563.042 679.044 563.145C680.621 570.29 682.937 577.253 685.955 583.921L711.349 584.162C711.443 583.881 711.527 583.591 711.612 583.311C709.26 583.436 706.902 583.273 704.589 582.826C710.878 575.538 715.722 571.834 712.201 561.543Z" fill="#F2F2F2" fill-opacity="0.5"/>
<path d="M1029.69 78.0343H1053.92C1055.11 78.0343 1056.25 77.5626 1057.09 76.7229C1057.94 75.8832 1058.41 74.7444 1058.41 73.5569C1058.41 72.3694 1057.94 71.2306 1057.09 70.3909C1056.25 69.5512 1055.11 69.0795 1053.92 69.0795H1029.69C1028.5 69.0795 1027.36 69.5512 1026.52 70.3909C1025.68 71.2306 1025.21 72.3694 1025.21 73.5569C1025.21 74.7444 1025.68 75.8832 1026.52 76.7229C1027.36 77.5626 1028.5 78.0343 1029.69 78.0343Z" fill="#E6E6E6"/>
<path d="M870.862 77.5866C868.632 77.5866 866.824 75.7824 866.824 73.5569C866.824 71.3314 868.632 69.5273 870.862 69.5273C873.093 69.5273 874.901 71.3314 874.901 73.5569C874.901 75.7824 873.093 77.5866 870.862 77.5866Z" fill="#E6E6E6"/>
<path d="M858.3 77.5866C856.069 77.5866 854.262 75.7824 854.262 73.5569C854.262 71.3314 856.069 69.5273 858.3 69.5273C860.53 69.5273 862.338 71.3314 862.338 73.5569C862.338 75.7824 860.53 77.5866 858.3 77.5866Z" fill="#E6E6E6"/>
<path d="M845.737 77.5866C843.506 77.5866 841.699 75.7824 841.699 73.5569C841.699 71.3314 843.506 69.5273 845.737 69.5273C847.967 69.5273 849.775 71.3314 849.775 73.5569C849.775 75.7824 847.967 77.5866 845.737 77.5866Z" fill="#E6E6E6"/>
<path d="M873.686 140.614H1025.97C1028.92 140.618 1031.74 141.789 1033.83 143.871C1035.92 145.952 1037.09 148.774 1037.09 151.718V250.498C1037.09 253.442 1035.92 256.264 1033.83 258.345C1031.74 260.427 1028.92 261.598 1025.97 261.602H873.686C870.735 261.6 867.907 260.429 865.82 258.347C863.734 256.265 862.561 253.442 862.559 250.498V151.718C862.561 148.774 863.734 145.951 865.82 143.869C867.907 141.787 870.735 140.617 873.686 140.614Z" fill="#F2F2F2" fill-opacity="0.5"/>
<path d="M921.359 182.784C935.121 207.064 950.307 230.513 966.838 253.007H990.719C975.077 233.991 959.424 214.975 943.759 195.959C939.265 190.484 934.388 184.748 927.647 182.523L921.359 182.784Z" fill="#3F3D56"/>
<path d="M953.095 178.89C955.586 181.48 957.973 184.174 960.22 186.973C965.166 192.917 970.043 198.914 974.938 204.894C977.986 208.613 981.034 212.333 984.048 216.053C985.005 215.439 985.913 214.754 986.765 214.002C991.578 209.833 994.563 203.949 995.081 197.61C995.599 191.271 993.608 184.982 989.535 180.091C985.463 175.199 979.632 172.094 973.293 171.44C966.953 170.787 960.61 172.638 955.621 176.596C954.722 177.295 953.878 178.062 953.095 178.89Z" fill="#101010"/>
<path d="M862.559 176.066V179.675L864.174 179.084L886.904 170.792C894.307 168.096 901.692 165.016 909.337 163.073C915.989 161.174 923.053 161.264 929.653 163.332C935.537 165.505 940.921 168.84 945.482 173.138C947.502 175 949.458 176.908 951.351 178.887C951.97 179.54 952.59 180.194 953.2 180.848C955.03 182.836 956.798 184.868 958.476 186.973C963.421 192.919 968.302 198.919 973.193 204.891C976.244 208.617 979.295 212.333 982.31 216.049C992.378 228.344 1002.39 240.663 1012.33 253.005C1013.67 252.99 1015.01 252.822 1016.31 252.504C1006.16 239.923 995.964 227.374 985.72 214.858C985.486 214.572 985.253 214.285 985.02 213.998C983.817 212.503 982.588 210.999 981.367 209.503C976.262 203.262 971.153 197.026 966.041 190.797C962.326 186.265 958.638 181.716 954.635 177.418C954.393 177.141 954.142 176.872 953.882 176.594C953.496 176.182 953.11 175.779 952.715 175.359C944.02 166.395 933.171 158.47 920.177 158.255C912.532 158.138 905.147 160.556 898.04 163.108C890.385 165.875 882.758 168.687 875.112 171.481L862.559 176.066Z" fill="#3F3D56"/>
<path d="M858.978 479.697H1040.83C1043.78 479.693 1046.61 478.523 1048.7 476.441C1050.78 474.36 1051.96 471.537 1051.96 468.594V444.136C1051.96 441.192 1050.78 438.37 1048.7 436.288C1046.61 434.207 1043.78 433.036 1040.83 433.033H858.978C856.028 433.036 853.2 434.207 851.114 436.288C849.028 438.37 847.855 441.192 847.852 444.136V468.594C847.855 471.537 849.028 474.36 851.114 476.441C853.2 478.523 856.028 479.693 858.978 479.697Z" fill="#F2F2F2"/>
<path d="M858.978 354.33H1040.83C1043.78 354.327 1046.61 353.156 1048.7 351.074C1050.78 348.993 1051.96 346.17 1051.96 343.227V318.769C1051.96 315.825 1050.78 313.003 1048.7 310.921C1046.61 308.84 1043.78 307.669 1040.83 307.666H858.978C856.028 307.669 853.2 308.84 851.114 310.921C849.028 313.003 847.855 315.825 847.852 318.769V343.227C847.855 346.17 849.028 348.993 851.114 351.074C853.2 353.156 856.028 354.327 858.978 354.33Z" fill="#F2F2F2" fill-opacity="0.75"/>
<path d="M858.978 417.013H1040.83C1043.78 417.01 1046.61 415.839 1048.7 413.758C1050.78 411.676 1051.96 408.854 1051.96 405.91V381.452C1051.96 378.508 1050.78 375.686 1048.7 373.605C1046.61 371.523 1043.78 370.352 1040.83 370.349H858.978C856.028 370.352 853.2 371.523 851.114 373.605C849.028 375.686 847.855 378.508 847.852 381.452V405.91C847.855 408.854 849.028 411.676 851.114 413.758C853.2 415.839 856.028 417.01 858.978 417.013Z" fill="#F2F2F2" fill-opacity="0.75"/>
<path d="M927.812 452.179H981.394C982.03 452.179 982.639 451.927 983.089 451.478C983.538 451.03 983.791 450.421 983.791 449.787C983.791 449.152 983.538 448.544 983.089 448.095C982.639 447.647 982.03 447.395 981.394 447.395H927.812C927.176 447.395 926.567 447.647 926.117 448.095C925.667 448.544 925.415 449.152 925.415 449.787C925.415 450.421 925.667 451.03 926.117 451.478C926.567 451.927 927.176 452.179 927.812 452.179Z" fill="white"/>
<path d="M876.277 465.335H981.993C982.629 465.335 983.239 465.083 983.688 464.634C984.138 464.185 984.39 463.577 984.39 462.943C984.39 462.308 984.138 461.7 983.688 461.251C983.239 460.803 982.629 460.551 981.993 460.551H876.277C875.641 460.551 875.032 460.803 874.582 461.251C874.133 461.7 873.88 462.308 873.88 462.943C873.88 463.577 874.133 464.185 874.582 464.634C875.032 465.083 875.641 465.335 876.277 465.335Z" fill="white"/>
<path d="M1009.86 472.402C1000.98 472.402 993.789 465.222 993.789 456.365C993.789 447.507 1000.98 440.327 1009.86 440.327C1018.74 440.327 1025.93 447.507 1025.93 456.365C1025.93 465.222 1018.74 472.402 1009.86 472.402Z" fill="white" fill-opacity="0.75"/>
<path d="M1013.44 478.028C1015.08 477.263 1016.96 477.167 1018.67 477.76C1020.38 478.353 1021.79 479.589 1022.6 481.204C1022.76 481.535 1022.89 481.878 1022.99 482.231L1047.19 483.674L1050.78 496.186L1017.84 490.632C1016.34 490.945 1014.78 490.753 1013.41 490.088C1012.03 489.423 1010.91 488.321 1010.22 486.955C1009.84 486.174 1009.62 485.326 1009.57 484.458C1009.51 483.591 1009.63 482.721 1009.91 481.899C1010.2 481.078 1010.64 480.32 1011.22 479.668C1011.79 479.017 1012.49 478.486 1013.28 478.105C1013.33 478.079 1013.39 478.053 1013.44 478.028Z" fill="#FFB6B6"/>
<path d="M1066.86 416.311C1068.45 415.66 1070.17 415.359 1071.89 415.429C1073.61 415.499 1075.3 415.939 1076.84 416.717C1078.37 417.495 1079.72 418.595 1080.8 419.941C1081.87 421.286 1082.64 422.847 1083.05 424.516L1089.71 451.329L1088.45 498.238C1088.45 498.238 1053.72 504.888 1047.89 500.613C1042.06 496.339 1042.61 493.157 1042.06 496.339C1041.52 499.521 1039.01 500.856 1038.98 499.59C1038.95 498.324 1038.66 498.541 1037.21 498.159C1035.76 497.778 1029.34 495.42 1029.34 495.42L1029.06 482.045C1029.06 482.045 1039.66 478.035 1042.23 479.231C1044.8 480.428 1041.68 482.414 1044.8 480.428C1047.92 478.442 1048.26 472.175 1048.8 477.823C1049.33 483.471 1050.89 484.523 1053.23 482.012C1055.57 479.5 1066.4 481.104 1066.4 481.104L1059.51 428.961C1059.16 426.338 1059.69 423.675 1061.02 421.386C1062.35 419.098 1064.41 417.313 1066.86 416.311Z" fill="#101010"/>
<path d="M832.98 555.418L832.614 545.541L870.619 539.435L871.157 554.012L832.98 555.418Z" fill="#FFB6B6"/>
<path d="M839.878 558.392L840.239 542.577L833.464 542.827L822.526 528.206C821.986 527.484 821.229 526.953 820.365 526.691C819.501 526.429 818.575 526.449 817.724 526.749C816.872 527.048 816.139 527.612 815.631 528.357C815.123 529.102 814.867 529.99 814.9 530.89L815.595 549.677L822.416 552.668L815.762 554.179L816.024 561.263L839.878 558.392Z" fill="#2F2E41"/>
<path d="M1046.87 578.069L926.498 564.101C926.498 564.101 874.517 567.097 862.321 559.179L849.46 557.559L848.763 538.707C848.763 538.707 856.627 538.765 861.149 536.662C865.671 534.56 862.528 531.987 866.839 534.517C871.15 537.046 870.695 537.351 874.028 536.188C877.361 535.026 1030.21 528.791 1030.21 528.791L1046.87 578.069Z" fill="#2F2E41"/>
<path d="M888.251 569.888L881.252 562.895L904.951 532.625L915.281 542.946L888.251 569.888Z" fill="#FFB6B6"/>
<path d="M895.335 567.386L884.821 555.548L880.024 560.329L862.041 557.034C861.153 556.872 860.236 556.996 859.424 557.39C858.612 557.785 857.947 558.427 857.527 559.225C857.107 560.023 856.954 560.934 857.089 561.825C857.225 562.716 857.642 563.54 858.28 564.177L871.593 577.479L878.633 575.042L874.784 580.666L879.804 585.681L895.335 567.386Z" fill="#2F2E41"/>
<path d="M1094.36 512.282L1093.16 540.042C1091.76 572.721 1055.69 592.5 1027.73 575.437C1027.21 575.123 1026.69 574.797 1026.18 574.46C1026.18 574.46 1015.57 571.619 1015.9 567.119C1016.22 562.62 1013.63 560.43 1011.34 561.657C1009.04 562.884 979.035 520.384 979.035 520.384C979.035 520.384 916.686 551.42 902.931 558.727L888.418 554.781C888.418 554.781 882.956 557.355 884.923 553.632C886.891 549.908 887.244 551.692 887.848 547.635C888.453 543.578 889.999 538.549 890.937 538.76C891.874 538.972 968.07 485.752 968.07 485.752C968.07 485.752 980.483 473.216 995.881 481.493C996.202 482.709 995.928 482.752 995.928 482.752L1046.79 524.112L1053.98 510.491L1094.36 512.282Z" fill="#2F2E41"/>
<path d="M1060.17 410.285L1081.98 400.085L1088.51 411.422C1088.51 411.422 1106.05 436.394 1106.3 454.409C1106.56 472.425 1103.44 477.782 1103.44 477.782C1103.44 477.782 1111.01 483.423 1107.22 486.871C1103.44 490.319 1095.08 491.807 1101.5 493.301C1107.93 494.796 1106.3 509.929 1099.12 512.616C1091.94 515.302 1053.39 515.278 1053.39 515.278C1053.74 514.105 1053.76 512.861 1053.46 511.674C1053.17 510.488 1052.56 509.403 1051.69 508.532C1048.71 505.542 1046.01 507.687 1048.71 503.033C1051.4 498.378 1055.88 501.065 1052.3 494.796C1048.71 488.528 1048.71 486.655 1048.71 486.655C1048.71 486.655 1041.39 472.758 1052.41 457.682C1053.08 456.763 1052.52 456.727 1052.52 456.727L1061.42 426.965L1060.17 410.285Z" fill="#101010"/>
<path d="M1095.32 367.397C1095.14 371.995 1098.04 378.508 1099.47 382.435C1101 386.634 1094.37 392.207 1090.13 393.428C1089.91 391.973 1089.18 390.643 1088.08 389.67C1088.38 391.056 1088.41 392.489 1088.16 393.886L1052.31 402.029C1045.86 394.577 1039.38 383.863 1040.79 370.941C1040.45 368.488 1040.85 365.989 1041.93 363.758C1043.01 361.528 1044.72 359.666 1046.86 358.405L1064.98 347.721C1072.69 345.97 1082.4 344.913 1087.96 349.672C1090.45 351.881 1092.4 354.623 1093.68 357.693C1094.95 360.762 1095.51 364.08 1095.32 367.397Z" fill="#2F2E41"/>
<path d="M1063.28 398.092C1051.88 398.092 1042.64 388.871 1042.64 377.496C1042.64 366.121 1051.88 356.9 1063.28 356.9C1074.68 356.9 1083.92 366.121 1083.92 377.496C1083.92 388.871 1074.68 398.092 1063.28 398.092Z" fill="#FFB6B6"/>
<path d="M1087.46 366.493L1088.45 370.859L1071.04 374.814C1071.03 373.931 1070.83 373.061 1070.46 372.258C1070.09 371.455 1069.56 370.737 1068.9 370.149C1069.28 371.86 1069.23 373.637 1068.77 375.329C1059.38 380.587 1050.92 382.45 1043.33 381.109C1042.3 381.343 1041.22 381.159 1040.33 380.599C1039.44 380.039 1038.81 379.147 1038.57 378.121C1035.52 364.736 1043.52 351.056 1056.87 347.733C1060.11 346.924 1063.48 346.769 1066.79 347.277C1070.09 347.786 1073.26 348.948 1076.11 350.695C1078.96 352.443 1081.43 354.74 1083.38 357.453C1085.33 360.165 1086.71 363.239 1087.46 366.493Z" fill="#2F2E41"/>
<path d="M1077.28 337.689C1074.98 337.192 1072.55 337.312 1070.48 335.76L1071.84 338.879C1068.06 337.847 1064.04 338.248 1060.54 340.005C1059.5 340.47 1058.62 341.218 1057.99 342.164C1057.65 342.736 1057.44 343.376 1057.38 344.038C1057.32 344.7 1057.42 345.366 1057.65 345.987C1057.87 346.521 1058.21 347.002 1058.63 347.4C1059.05 347.798 1059.54 348.104 1060.09 348.299C1061.06 348.589 1062.07 348.695 1063.07 348.611C1067.31 348.512 1071.55 348.414 1075.79 348.315C1077.4 348.415 1079.01 348.102 1080.47 347.406C1081.25 346.928 1081.87 346.234 1082.26 345.409C1082.64 344.585 1082.78 343.666 1082.65 342.765C1082.25 339.93 1079.57 338.187 1077.28 337.689Z" fill="#2F2E41"/>
<path d="M965.319 499.109C965.368 499.05 965.425 498.998 965.488 498.954C965.642 498.775 965.83 498.628 966.041 498.522L967.551 497.715L977.578 486.607C978.158 486.305 978.833 486.241 979.46 486.427L979.486 486.435L983.781 487.76L987.475 488.904L992.635 490.501L1027.78 501.361L1050.88 508.498C1051.51 508.696 1052.03 509.13 1052.34 509.707C1052.64 510.285 1052.71 510.959 1052.52 511.586C1052.42 511.931 1052.24 512.25 1052 512.521L1051.26 513.338L1049.72 515.052L1046.15 522.44L1045.16 523.544C1044.84 523.895 1044.43 524.15 1043.98 524.277C1043.52 524.405 1043.04 524.4 1042.58 524.264L966.476 503.144C966.081 503.017 965.723 502.794 965.434 502.496C965.146 502.197 964.935 501.833 964.82 501.434C964.706 501.035 964.692 500.615 964.779 500.209C964.866 499.804 965.051 499.426 965.319 499.109Z" fill="#CCCCCC"/>
<path d="M969.838 389.228L971.311 389.467C971.715 389.534 972.077 389.757 972.316 390.089L972.965 390.995L978.823 405.611C979.061 405.945 979.157 406.36 979.089 406.765L978.403 410.929L980.996 485.259C980.931 485.643 980.724 485.989 980.416 486.229L969.044 501.41L968.778 501.62L968.206 502.068C967.912 502.294 967.548 502.41 967.177 502.394L966.21 502.348C965.991 502.338 965.776 502.281 965.58 502.181C965.385 502.081 965.212 501.941 965.075 501.77C964.936 501.601 964.835 501.404 964.78 501.192C964.724 500.981 964.715 500.759 964.752 500.544L968.051 390.5C968.118 390.096 968.343 389.735 968.677 389.496C969.01 389.257 969.425 389.161 969.83 389.227L969.838 389.228Z" fill="#CCCCCC"/>
<path d="M972.306 395.004L977.494 410.776L979.501 473.777L971.425 480.94L972.306 395.004Z" fill="#101010"/>
<path d="M1012.43 491.104C1014.07 490.339 1015.94 490.243 1017.65 490.836C1019.36 491.429 1020.77 492.665 1021.58 494.28C1021.74 494.611 1021.88 494.955 1021.98 495.307L1046.18 496.75L1049.77 509.262L1016.83 503.709C1015.33 504.021 1013.77 503.83 1012.39 503.164C1011.01 502.499 1009.9 501.398 1009.21 500.032C1008.44 498.454 1008.33 496.635 1008.9 494.976C1009.47 493.316 1010.68 491.951 1012.26 491.181C1012.32 491.155 1012.37 491.129 1012.43 491.104Z" fill="#FFB6B6"/>
<path d="M1065.85 429.388C1067.44 428.736 1069.16 428.436 1070.88 428.506C1072.6 428.576 1074.29 429.015 1075.82 429.793C1077.36 430.572 1078.71 431.671 1079.78 433.017C1080.86 434.363 1081.63 435.923 1082.04 437.592L1088.69 464.406L1087.44 511.314C1087.44 511.314 1052.71 517.964 1046.88 513.69C1041.05 509.415 1041.6 506.233 1041.05 509.415C1040.5 512.597 1038 513.932 1037.97 512.666C1037.93 511.4 1037.65 511.617 1036.2 511.236C1034.74 510.854 1028.33 508.496 1028.33 508.496L1028.04 495.122C1028.04 495.122 1038.65 491.111 1041.22 492.308C1043.79 493.504 1040.67 495.49 1043.79 493.504C1046.91 491.519 1047.25 485.252 1047.78 490.9C1048.32 496.548 1049.88 497.599 1052.22 495.088C1054.55 492.576 1065.39 494.181 1065.39 494.181L1058.49 442.037C1058.15 439.414 1058.68 436.751 1060.01 434.462C1061.34 432.174 1063.39 430.39 1065.85 429.388Z" fill="#101010"/>
<path d="M1167 585C1167 585.131 1166.98 585.262 1166.93 585.383C1166.89 585.505 1166.82 585.615 1166.74 585.708C1166.66 585.801 1166.56 585.875 1166.46 585.925C1166.35 585.975 1166.24 586 1166.12 586L636.88 586C636.647 586 636.423 585.895 636.258 585.707C636.093 585.52 636 585.265 636 585C636 584.735 636.093 584.48 636.258 584.293C636.423 584.105 636.647 584 636.88 584H1166.12C1166.24 584 1166.35 584.025 1166.46 584.075C1166.56 584.125 1166.66 584.199 1166.74 584.292C1166.82 584.385 1166.89 584.495 1166.93 584.617C1166.98 584.738 1167 584.869 1167 585Z" fill="#CCCCCC" fill-opacity="0.75"/>
<path d="M713.608 354.33H895.463C898.413 354.327 901.241 353.156 903.327 351.074C905.413 348.993 906.586 346.17 906.589 343.227V318.769C906.586 315.825 905.413 313.003 903.327 310.921C901.241 308.84 898.413 307.669 895.463 307.666H713.608C710.658 307.669 707.83 308.84 705.744 310.921C703.658 313.003 702.485 315.825 702.481 318.769V343.227C702.485 346.17 703.658 348.993 705.744 351.074C707.83 353.156 710.658 354.327 713.608 354.33Z" fill="#E6E6E6"/>
<path d="M782.441 326.812H836.024C836.659 326.812 837.269 326.56 837.719 326.111C838.168 325.663 838.421 325.054 838.421 324.42C838.421 323.785 838.168 323.177 837.719 322.728C837.269 322.28 836.659 322.028 836.024 322.028H782.441C781.806 322.028 781.196 322.28 780.747 322.728C780.297 323.177 780.044 323.785 780.044 324.42C780.044 325.054 780.297 325.663 780.747 326.111C781.196 326.56 781.806 326.812 782.441 326.812Z" fill="white"/>
<path d="M730.907 339.968H836.623C837.259 339.968 837.868 339.716 838.318 339.267C838.767 338.819 839.02 338.21 839.02 337.576C839.02 336.941 838.767 336.333 838.318 335.884C837.868 335.436 837.259 335.184 836.623 335.184H730.907C730.271 335.184 729.661 335.436 729.212 335.884C728.762 336.333 728.51 336.941 728.51 337.576C728.51 338.21 728.762 338.819 729.212 339.267C729.661 339.716 730.271 339.968 730.907 339.968Z" fill="white"/>
<path d="M864.49 347.035C855.614 347.035 848.419 339.855 848.419 330.998C848.419 322.14 855.614 314.96 864.49 314.96C873.366 314.96 880.561 322.14 880.561 330.998C880.561 339.855 873.366 347.035 864.49 347.035Z" fill="white" fill-opacity="0.75"/>
<path d="M771.935 417.013H953.791C956.74 417.01 959.569 415.839 961.654 413.758C963.74 411.676 964.914 408.854 964.917 405.91V381.452C964.914 378.508 963.74 375.686 961.654 373.605C959.569 371.523 956.74 370.352 953.791 370.349H771.935C768.985 370.352 766.157 371.523 764.071 373.605C761.986 375.686 760.812 378.508 760.809 381.452V405.91C760.812 408.854 761.986 411.676 764.071 413.758C766.157 415.839 768.985 417.01 771.935 417.013Z" fill="#E6E6E6"/>
<path d="M840.769 389.495H894.351C894.987 389.495 895.597 389.243 896.046 388.795C896.496 388.346 896.748 387.738 896.748 387.103C896.748 386.469 896.496 385.86 896.046 385.412C895.597 384.963 894.987 384.711 894.351 384.711H840.769C840.133 384.711 839.524 384.963 839.074 385.412C838.625 385.86 838.372 386.469 838.372 387.103C838.372 387.738 838.625 388.346 839.074 388.795C839.524 389.243 840.133 389.495 840.769 389.495Z" fill="white"/>
<path d="M789.234 402.651H894.951C895.586 402.651 896.196 402.399 896.645 401.951C897.095 401.502 897.348 400.894 897.348 400.259C897.348 399.625 897.095 399.016 896.645 398.568C896.196 398.119 895.586 397.867 894.951 397.867H789.234C788.599 397.867 787.989 398.119 787.539 398.568C787.09 399.016 786.837 399.625 786.837 400.259C786.837 400.894 787.09 401.502 787.539 401.951C787.989 402.399 788.599 402.651 789.234 402.651Z" fill="white"/>
<path d="M922.818 409.719C913.942 409.719 906.747 402.538 906.747 393.681C906.747 384.824 913.942 377.644 922.818 377.644C931.693 377.644 938.889 384.824 938.889 393.681C938.889 402.538 931.693 409.719 922.818 409.719Z" fill="white" fill-opacity="0.75"/>
<defs>
<clipPath id="clip0_5_209">
<rect width="467" height="268" fill="white" transform="translate(61 318)"/>
</clipPath>
</defs>
</svg>
