<svg width="1176" height="603" viewBox="0 0 1176 603" fill="none" xmlns="http://www.w3.org/2000/svg">
<g filter="url(#filter0_d_5_209)">
<path d="M4 0H1172V595H4V0Z" fill="#0D1117"/>
</g>
<path d="M523 201H66V207H523V201Z" fill="#414356"/>
<path d="M69.706 193L66.85 168.18H69.774L71.644 186.54C71.6893 187.039 71.7347 187.56 71.78 188.104C71.8253 188.625 71.8593 189.124 71.882 189.6C71.9273 190.076 71.95 190.473 71.95 190.79C71.9953 190.473 72.0293 190.076 72.052 189.6C72.0973 189.124 72.1427 188.625 72.188 188.104C72.256 187.56 72.324 187.039 72.392 186.54L74.704 168.18H77.866L79.974 186.54C80.042 187.039 80.0987 187.56 80.144 188.104C80.212 188.625 80.2687 189.124 80.314 189.6C80.382 190.076 80.4273 190.473 80.45 190.79C80.4727 190.473 80.4953 190.076 80.518 189.6C80.5633 189.124 80.6087 188.625 80.654 188.104C80.722 187.56 80.7787 187.039 80.824 186.54L82.762 168.18H85.55L82.626 193H78.784L76.676 174.3C76.6307 173.779 76.574 173.269 76.506 172.77C76.4607 172.271 76.4153 171.807 76.37 171.376C76.3247 170.945 76.2907 170.594 76.268 170.322C76.2453 170.594 76.2 170.945 76.132 171.376C76.0867 171.807 76.0413 172.271 75.996 172.77C75.9507 173.269 75.894 173.779 75.826 174.3L73.548 193H69.706ZM96.5867 193.34C95.1134 193.34 93.8214 193.045 92.7107 192.456C91.6227 191.867 90.7727 191.039 90.1607 189.974C89.5714 188.886 89.2767 187.628 89.2767 186.2V181.1C89.2767 179.649 89.5714 178.391 90.1607 177.326C90.7727 176.261 91.6227 175.433 92.7107 174.844C93.8214 174.255 95.1134 173.96 96.5867 173.96C98.0601 173.96 99.3407 174.255 100.429 174.844C101.539 175.433 102.389 176.261 102.979 177.326C103.591 178.391 103.897 179.649 103.897 181.1V184.398H92.2687V186.2C92.2687 187.673 92.6427 188.807 93.3907 189.6C94.1387 190.371 95.2041 190.756 96.5867 190.756C97.7654 190.756 98.7174 190.552 99.4427 190.144C100.168 189.713 100.61 189.079 100.769 188.24H103.829C103.625 189.804 102.854 191.051 101.517 191.98C100.202 192.887 98.5587 193.34 96.5867 193.34ZM100.905 182.358V181.1C100.905 179.627 100.531 178.493 99.7827 177.7C99.0574 176.907 97.9921 176.51 96.5867 176.51C95.2041 176.51 94.1387 176.907 93.3907 177.7C92.6427 178.493 92.2687 179.627 92.2687 181.1V182.086H101.143L100.905 182.358ZM118.061 193.34C116.52 193.34 115.285 192.932 114.355 192.116C113.426 191.277 112.961 190.144 112.961 188.716L113.573 189.43H112.961V193H109.901V168.18H112.961V173.62L112.893 177.87H113.573L112.961 178.584C112.961 177.179 113.426 176.057 114.355 175.218C115.307 174.379 116.543 173.96 118.061 173.96C119.943 173.96 121.45 174.583 122.583 175.83C123.717 177.077 124.283 178.777 124.283 180.93V186.404C124.283 188.535 123.717 190.223 122.583 191.47C121.45 192.717 119.943 193.34 118.061 193.34ZM117.041 190.688C118.333 190.688 119.353 190.303 120.101 189.532C120.849 188.761 121.223 187.651 121.223 186.2V181.1C121.223 179.649 120.849 178.539 120.101 177.768C119.353 176.997 118.333 176.612 117.041 176.612C115.795 176.612 114.797 177.009 114.049 177.802C113.324 178.595 112.961 179.695 112.961 181.1V186.2C112.961 187.605 113.324 188.705 114.049 189.498C114.797 190.291 115.795 190.688 117.041 190.688ZM155.367 193.34C153.508 193.34 152.046 192.841 150.981 191.844C149.938 190.847 149.417 189.475 149.417 187.73V183.48C149.417 182.279 149.723 181.27 150.335 180.454C150.97 179.615 151.865 179.026 153.021 178.686L152.783 178.346C152.08 177.394 151.57 176.51 151.253 175.694C150.936 174.878 150.777 174.062 150.777 173.246C150.777 172.158 151.026 171.206 151.525 170.39C152.046 169.574 152.76 168.951 153.667 168.52C154.596 168.067 155.673 167.84 156.897 167.84C158.212 167.84 159.345 168.078 160.297 168.554C161.272 169.03 162.02 169.699 162.541 170.56C163.062 171.421 163.323 172.453 163.323 173.654H160.263C160.263 172.997 160.127 172.43 159.855 171.954C159.583 171.478 159.198 171.115 158.699 170.866C158.2 170.617 157.6 170.492 156.897 170.492C156.285 170.492 155.741 170.605 155.265 170.832C154.812 171.059 154.46 171.387 154.211 171.818C153.962 172.226 153.837 172.725 153.837 173.314C153.837 173.881 153.95 174.493 154.177 175.15C154.426 175.807 154.766 176.431 155.197 177.02L161.045 185.078L163.459 180.76H166.655L162.813 187.526L166.791 193H163.425L161.283 190.042C159.606 192.241 157.634 193.34 155.367 193.34ZM155.537 190.62C156.308 190.62 157.044 190.371 157.747 189.872C158.472 189.351 159.084 188.637 159.583 187.73L154.585 180.828C153.882 180.941 153.35 181.225 152.987 181.678C152.647 182.131 152.477 182.732 152.477 183.48V187.73C152.477 188.637 152.738 189.351 153.259 189.872C153.803 190.371 154.562 190.62 155.537 190.62ZM190.904 193V168.18H194.916L197.5 176.204C197.75 176.929 197.976 177.655 198.18 178.38C198.384 179.083 198.532 179.627 198.622 180.012C198.736 179.627 198.883 179.083 199.064 178.38C199.246 177.655 199.45 176.918 199.676 176.17L202.124 168.18H206.136V193H203.144V183.99C203.144 182.993 203.178 181.859 203.246 180.59C203.314 179.321 203.405 178.029 203.518 176.714C203.632 175.377 203.745 174.107 203.858 172.906C203.994 171.682 204.108 170.617 204.198 169.71L200.186 182.12H196.956L192.91 169.71C193.024 170.594 193.137 171.625 193.25 172.804C193.364 173.96 193.466 175.195 193.556 176.51C193.647 177.802 193.726 179.094 193.794 180.386C193.862 181.678 193.896 182.879 193.896 183.99V193H190.904ZM218.907 193.272C217.411 193.272 216.119 192.989 215.031 192.422C213.943 191.855 213.093 191.039 212.481 189.974C211.892 188.886 211.597 187.605 211.597 186.132V181.168C211.597 179.672 211.892 178.391 212.481 177.326C213.093 176.261 213.943 175.445 215.031 174.878C216.119 174.311 217.411 174.028 218.907 174.028C220.403 174.028 221.695 174.311 222.783 174.878C223.871 175.445 224.71 176.261 225.299 177.326C225.911 178.391 226.217 179.661 226.217 181.134V186.132C226.217 187.605 225.911 188.886 225.299 189.974C224.71 191.039 223.871 191.855 222.783 192.422C221.695 192.989 220.403 193.272 218.907 193.272ZM218.907 190.552C220.244 190.552 221.287 190.178 222.035 189.43C222.783 188.682 223.157 187.583 223.157 186.132V181.168C223.157 179.717 222.783 178.618 222.035 177.87C221.287 177.122 220.244 176.748 218.907 176.748C217.592 176.748 216.55 177.122 215.779 177.87C215.031 178.618 214.657 179.717 214.657 181.168V186.132C214.657 187.583 215.031 188.682 215.779 189.43C216.55 190.178 217.592 190.552 218.907 190.552ZM240.382 193.34C238.84 193.34 237.605 192.932 236.676 192.116C235.746 191.277 235.282 190.144 235.282 188.716L235.894 189.43H235.282V193H232.222V168.18H235.282V173.62L235.214 177.87H235.894L235.282 178.584C235.282 177.179 235.746 176.057 236.676 175.218C237.628 174.379 238.863 173.96 240.382 173.96C242.263 173.96 243.77 174.583 244.904 175.83C246.037 177.077 246.604 178.777 246.604 180.93V186.404C246.604 188.535 246.037 190.223 244.904 191.47C243.77 192.717 242.263 193.34 240.382 193.34ZM239.362 190.688C240.654 190.688 241.674 190.303 242.422 189.532C243.17 188.761 243.544 187.651 243.544 186.2V181.1C243.544 179.649 243.17 178.539 242.422 177.768C241.674 176.997 240.654 176.612 239.362 176.612C238.115 176.612 237.118 177.009 236.37 177.802C235.644 178.595 235.282 179.695 235.282 181.1V186.2C235.282 187.605 235.644 188.705 236.37 189.498C237.118 190.291 238.115 190.688 239.362 190.688ZM252.37 193V190.212H259V177.088H253.22V174.3H262.06V190.212H268.35V193H252.37ZM260.19 170.934C259.442 170.934 258.853 170.741 258.422 170.356C257.992 169.971 257.776 169.449 257.776 168.792C257.776 168.112 257.992 167.579 258.422 167.194C258.853 166.786 259.442 166.582 260.19 166.582C260.938 166.582 261.528 166.786 261.958 167.194C262.389 167.579 262.604 168.112 262.604 168.792C262.604 169.449 262.389 169.971 261.958 170.356C261.528 170.741 260.938 170.934 260.19 170.934ZM282.617 193C281.529 193 280.577 192.785 279.761 192.354C278.945 191.923 278.311 191.311 277.857 190.518C277.404 189.725 277.177 188.795 277.177 187.73V170.968H270.887V168.18H280.237V187.73C280.237 188.501 280.453 189.113 280.883 189.566C281.314 189.997 281.892 190.212 282.617 190.212H288.567V193H282.617ZM300.454 193.34C298.981 193.34 297.689 193.045 296.578 192.456C295.49 191.867 294.64 191.039 294.028 189.974C293.439 188.886 293.144 187.628 293.144 186.2V181.1C293.144 179.649 293.439 178.391 294.028 177.326C294.64 176.261 295.49 175.433 296.578 174.844C297.689 174.255 298.981 173.96 300.454 173.96C301.927 173.96 303.208 174.255 304.296 174.844C305.407 175.433 306.257 176.261 306.846 177.326C307.458 178.391 307.764 179.649 307.764 181.1V184.398H296.136V186.2C296.136 187.673 296.51 188.807 297.258 189.6C298.006 190.371 299.071 190.756 300.454 190.756C301.633 190.756 302.585 190.552 303.31 190.144C304.035 189.713 304.477 189.079 304.636 188.24H307.696C307.492 189.804 306.721 191.051 305.384 191.98C304.069 192.887 302.426 193.34 300.454 193.34ZM304.772 182.358V181.1C304.772 179.627 304.398 178.493 303.65 177.7C302.925 176.907 301.859 176.51 300.454 176.51C299.071 176.51 298.006 176.907 297.258 177.7C296.51 178.493 296.136 179.627 296.136 181.1V182.086H305.01L304.772 182.358ZM334.155 193V168.18H340.581C342.191 168.18 343.573 168.486 344.729 169.098C345.908 169.71 346.815 170.571 347.449 171.682C348.107 172.793 348.435 174.107 348.435 175.626V185.52C348.435 187.039 348.107 188.365 347.449 189.498C346.815 190.609 345.908 191.47 344.729 192.082C343.573 192.694 342.191 193 340.581 193H334.155ZM337.215 190.28H340.581C342.077 190.28 343.245 189.861 344.083 189.022C344.945 188.183 345.375 187.016 345.375 185.52V175.626C345.375 174.153 344.945 172.997 344.083 172.158C343.245 171.319 342.077 170.9 340.581 170.9H337.215V190.28ZM361.614 193.34C360.141 193.34 358.849 193.045 357.738 192.456C356.65 191.867 355.8 191.039 355.188 189.974C354.599 188.886 354.304 187.628 354.304 186.2V181.1C354.304 179.649 354.599 178.391 355.188 177.326C355.8 176.261 356.65 175.433 357.738 174.844C358.849 174.255 360.141 173.96 361.614 173.96C363.087 173.96 364.368 174.255 365.456 174.844C366.567 175.433 367.417 176.261 368.006 177.326C368.618 178.391 368.924 179.649 368.924 181.1V184.398H357.296V186.2C357.296 187.673 357.67 188.807 358.418 189.6C359.166 190.371 360.231 190.756 361.614 190.756C362.793 190.756 363.745 190.552 364.47 190.144C365.195 189.713 365.637 189.079 365.796 188.24H368.856C368.652 189.804 367.881 191.051 366.544 191.98C365.229 192.887 363.586 193.34 361.614 193.34ZM365.932 182.358V181.1C365.932 179.627 365.558 178.493 364.81 177.7C364.085 176.907 363.019 176.51 361.614 176.51C360.231 176.51 359.166 176.907 358.418 177.7C357.67 178.493 357.296 179.627 357.296 181.1V182.086H366.17L365.932 182.358ZM379.927 193L373.671 174.3H376.799L380.947 186.88C381.196 187.628 381.423 188.353 381.627 189.056C381.831 189.736 381.978 190.269 382.069 190.654C382.182 190.269 382.341 189.736 382.545 189.056C382.749 188.353 382.964 187.628 383.191 186.88L387.237 174.3H390.331L384.075 193H379.927ZM402.388 193.34C400.914 193.34 399.622 193.045 398.512 192.456C397.424 191.867 396.574 191.039 395.962 189.974C395.372 188.886 395.078 187.628 395.078 186.2V181.1C395.078 179.649 395.372 178.391 395.962 177.326C396.574 176.261 397.424 175.433 398.512 174.844C399.622 174.255 400.914 173.96 402.388 173.96C403.861 173.96 405.142 174.255 406.23 174.844C407.34 175.433 408.19 176.261 408.78 177.326C409.392 178.391 409.698 179.649 409.698 181.1V184.398H398.07V186.2C398.07 187.673 398.444 188.807 399.192 189.6C399.94 190.371 401.005 190.756 402.388 190.756C403.566 190.756 404.518 190.552 405.244 190.144C405.969 189.713 406.411 189.079 406.57 188.24H409.63C409.426 189.804 408.655 191.051 407.318 191.98C406.003 192.887 404.36 193.34 402.388 193.34ZM406.706 182.358V181.1C406.706 179.627 406.332 178.493 405.584 177.7C404.858 176.907 403.793 176.51 402.388 176.51C401.005 176.51 399.94 176.907 399.192 177.7C398.444 178.493 398.07 179.627 398.07 181.1V182.086H406.944L406.706 182.358ZM425.324 193C424.236 193 423.284 192.785 422.468 192.354C421.652 191.923 421.018 191.311 420.564 190.518C420.111 189.725 419.884 188.795 419.884 187.73V170.968H413.594V168.18H422.944V187.73C422.944 188.501 423.16 189.113 423.59 189.566C424.021 189.997 424.599 190.212 425.324 190.212H431.274V193H425.324ZM443.161 193.272C441.665 193.272 440.373 192.989 439.285 192.422C438.197 191.855 437.347 191.039 436.735 189.974C436.146 188.886 435.851 187.605 435.851 186.132V181.168C435.851 179.672 436.146 178.391 436.735 177.326C437.347 176.261 438.197 175.445 439.285 174.878C440.373 174.311 441.665 174.028 443.161 174.028C444.657 174.028 445.949 174.311 447.037 174.878C448.125 175.445 448.964 176.261 449.553 177.326C450.165 178.391 450.471 179.661 450.471 181.134V186.132C450.471 187.605 450.165 188.886 449.553 189.974C448.964 191.039 448.125 191.855 447.037 192.422C445.949 192.989 444.657 193.272 443.161 193.272ZM443.161 190.552C444.498 190.552 445.541 190.178 446.289 189.43C447.037 188.682 447.411 187.583 447.411 186.132V181.168C447.411 179.717 447.037 178.618 446.289 177.87C445.541 177.122 444.498 176.748 443.161 176.748C441.846 176.748 440.804 177.122 440.033 177.87C439.285 178.618 438.911 179.717 438.911 181.168V186.132C438.911 187.583 439.285 188.682 440.033 189.43C440.804 190.178 441.846 190.552 443.161 190.552ZM456.476 199.12V174.3H459.536V177.87H460.148L459.536 178.584C459.536 177.156 460 176.034 460.93 175.218C461.882 174.379 463.128 173.96 464.67 173.96C466.551 173.96 468.047 174.583 469.158 175.83C470.291 177.054 470.858 178.743 470.858 180.896V186.37C470.858 187.798 470.597 189.033 470.076 190.076C469.577 191.119 468.863 191.923 467.934 192.49C467.027 193.057 465.939 193.34 464.67 193.34C463.151 193.34 461.916 192.921 460.964 192.082C460.012 191.243 459.536 190.121 459.536 188.716L460.148 189.43H459.468L459.536 193.68V199.12H456.476ZM463.65 190.688C464.942 190.688 465.95 190.303 466.676 189.532C467.424 188.761 467.798 187.651 467.798 186.2V181.1C467.798 179.649 467.424 178.539 466.676 177.768C465.95 176.997 464.942 176.612 463.65 176.612C462.403 176.612 461.406 177.009 460.658 177.802C459.91 178.595 459.536 179.695 459.536 181.1V186.2C459.536 187.605 459.91 188.705 460.658 189.498C461.406 190.291 462.403 190.688 463.65 190.688ZM483.934 193.34C482.461 193.34 481.169 193.045 480.058 192.456C478.97 191.867 478.12 191.039 477.508 189.974C476.919 188.886 476.624 187.628 476.624 186.2V181.1C476.624 179.649 476.919 178.391 477.508 177.326C478.12 176.261 478.97 175.433 480.058 174.844C481.169 174.255 482.461 173.96 483.934 173.96C485.408 173.96 486.688 174.255 487.776 174.844C488.887 175.433 489.737 176.261 490.326 177.326C490.938 178.391 491.244 179.649 491.244 181.1V184.398H479.616V186.2C479.616 187.673 479.99 188.807 480.738 189.6C481.486 190.371 482.552 190.756 483.934 190.756C485.113 190.756 486.065 190.552 486.79 190.144C487.516 189.713 487.958 189.079 488.116 188.24H491.176C490.972 189.804 490.202 191.051 488.864 191.98C487.55 192.887 485.906 193.34 483.934 193.34ZM488.252 182.358V181.1C488.252 179.627 487.878 178.493 487.13 177.7C486.405 176.907 485.34 176.51 483.934 176.51C482.552 176.51 481.486 176.907 480.738 177.7C479.99 178.493 479.616 179.627 479.616 181.1V182.086H488.49L488.252 182.358ZM497.895 193V174.3H500.887V177.87H501.601L500.615 180.08C500.615 178.063 501.046 176.544 501.907 175.524C502.791 174.481 504.094 173.96 505.817 173.96C507.789 173.96 509.353 174.583 510.509 175.83C511.688 177.054 512.277 178.72 512.277 180.828V181.95H509.217V181.1C509.217 179.627 508.854 178.505 508.129 177.734C507.426 176.941 506.418 176.544 505.103 176.544C503.811 176.544 502.791 176.941 502.043 177.734C501.318 178.527 500.955 179.649 500.955 181.1V193H497.895Z" fill="#F7F7F7"/>
<path d="M84.544 96.61C81.616 96.61 79.0947 96.122 76.98 95.146C74.906 94.17 73.2997 92.767 72.161 90.937C71.0223 89.107 70.4327 86.9313 70.392 84.41H75.882C75.882 86.6467 76.6343 88.4157 78.139 89.717C79.6843 91.0183 81.8193 91.669 84.544 91.669C87.106 91.669 89.0987 91.0387 90.522 89.778C91.986 88.5173 92.718 86.7687 92.718 84.532C92.718 82.7427 92.23 81.177 91.254 79.835C90.3187 78.493 88.9563 77.5577 87.167 77.029L81.128 75.138C78.078 74.2027 75.7193 72.637 74.052 70.441C72.4253 68.245 71.612 65.6627 71.612 62.694C71.612 60.2947 72.1407 58.2207 73.198 56.472C74.296 54.6827 75.821 53.3 77.773 52.324C79.725 51.3073 82.0227 50.799 84.666 50.799C88.57 50.799 91.7013 51.897 94.06 54.093C96.4187 56.2483 97.6183 59.1357 97.659 62.755H92.169C92.169 60.559 91.498 58.851 90.156 57.631C88.8547 56.3703 87.0043 55.74 84.605 55.74C82.2463 55.74 80.396 56.3093 79.054 57.448C77.7527 58.5867 77.102 60.1727 77.102 62.206C77.102 64.036 77.59 65.622 78.566 66.964C79.542 68.306 80.945 69.2617 82.775 69.831L88.875 71.783C91.8437 72.7183 94.1413 74.3043 95.768 76.541C97.3947 78.7777 98.208 81.4007 98.208 84.41C98.208 86.85 97.6387 88.985 96.5 90.815C95.3613 92.645 93.755 94.0683 91.681 95.085C89.6477 96.1017 87.2687 96.61 84.544 96.61ZM108.188 96V51.47H113.678V62.45V68.855H114.837L113.678 70.136C113.678 67.4927 114.471 65.4593 116.057 64.036C117.643 62.572 119.839 61.84 122.645 61.84C126.021 61.84 128.705 62.877 130.697 64.951C132.69 67.025 133.686 69.8513 133.686 73.43V96H128.196V74.04C128.196 71.6407 127.546 69.7903 126.244 68.489C124.984 67.147 123.255 66.476 121.059 66.476C118.782 66.476 116.972 67.1877 115.63 68.611C114.329 70.0343 113.678 72.0473 113.678 74.65V96H108.188ZM154.524 96.61C150.986 96.61 148.201 95.7153 146.167 93.926C144.134 92.096 143.117 89.6357 143.117 86.545C143.117 83.4137 144.134 80.9533 146.167 79.164C148.201 77.3747 150.946 76.48 154.402 76.48H164.772V73.125C164.772 71.051 164.142 69.465 162.881 68.367C161.661 67.2283 159.913 66.659 157.635 66.659C155.643 66.659 153.975 67.086 152.633 67.94C151.291 68.7533 150.519 69.8717 150.315 71.295H144.825C145.191 68.4077 146.554 66.11 148.912 64.402C151.271 62.694 154.219 61.84 157.757 61.84C161.621 61.84 164.671 62.8363 166.907 64.829C169.144 66.8217 170.262 69.526 170.262 72.942V96H164.894V89.595H163.979L164.894 88.68C164.894 91.12 163.939 93.0517 162.027 94.475C160.157 95.8983 157.656 96.61 154.524 96.61ZM155.866 92.279C158.469 92.279 160.604 91.6283 162.271 90.327C163.939 89.0257 164.772 87.3583 164.772 85.325V80.567H154.524C152.694 80.567 151.251 81.0753 150.193 82.092C149.136 83.1087 148.607 84.4913 148.607 86.24C148.607 88.1107 149.238 89.595 150.498 90.693C151.8 91.7503 153.589 92.279 155.866 92.279ZM193.968 96.61C190.104 96.61 187.014 95.4713 184.696 93.194C182.378 90.876 181.219 87.7447 181.219 83.8V62.45H186.709V83.8C186.709 86.3213 187.359 88.2937 188.661 89.717C189.962 91.0997 191.731 91.791 193.968 91.791C196.245 91.791 198.034 91.0997 199.336 89.717C200.678 88.2937 201.349 86.3213 201.349 83.8V62.45H206.839V83.8C206.839 87.7447 205.659 90.876 203.301 93.194C200.942 95.4713 197.831 96.61 193.968 96.61ZM235.18 96C233.228 96 231.52 95.6137 230.056 94.841C228.592 94.0683 227.453 92.9703 226.64 91.547C225.826 90.1237 225.42 88.4563 225.42 86.545V56.472H214.135V51.47H230.91V86.545C230.91 87.9277 231.296 89.0257 232.069 89.839C232.841 90.6117 233.878 90.998 235.18 90.998H245.855V96H235.18ZM73.015 150V105.47H78.505V144.998H98.635V150H73.015ZM117.948 150.61C114.41 150.61 111.625 149.715 109.591 147.926C107.558 146.096 106.541 143.636 106.541 140.545C106.541 137.414 107.558 134.953 109.591 133.164C111.625 131.375 114.37 130.48 117.826 130.48H128.196V127.125C128.196 125.051 127.566 123.465 126.305 122.367C125.085 121.228 123.337 120.659 121.059 120.659C119.067 120.659 117.399 121.086 116.057 121.94C114.715 122.753 113.943 123.872 113.739 125.295H108.249C108.615 122.408 109.978 120.11 112.336 118.402C114.695 116.694 117.643 115.84 121.181 115.84C125.045 115.84 128.095 116.836 130.331 118.829C132.568 120.822 133.686 123.526 133.686 126.942V150H128.318V143.595H127.403L128.318 142.68C128.318 145.12 127.363 147.052 125.451 148.475C123.581 149.898 121.08 150.61 117.948 150.61ZM119.29 146.279C121.893 146.279 124.028 145.628 125.695 144.327C127.363 143.026 128.196 141.358 128.196 139.325V134.567H117.948C116.118 134.567 114.675 135.075 113.617 136.092C112.56 137.109 112.031 138.491 112.031 140.24C112.031 142.111 112.662 143.595 113.922 144.693C115.224 145.75 117.013 146.279 119.29 146.279ZM153.731 150L142.507 116.45H148.119L155.561 139.02C156.009 140.362 156.415 141.663 156.781 142.924C157.147 144.144 157.412 145.1 157.574 145.791C157.778 145.1 158.062 144.144 158.428 142.924C158.794 141.663 159.181 140.362 159.587 139.02L166.846 116.45H172.397L161.173 150H153.731ZM194.029 150.488C191.345 150.488 189.027 149.98 187.075 148.963C185.123 147.946 183.598 146.482 182.5 144.571C181.442 142.619 180.914 140.321 180.914 137.678V128.772C180.914 126.088 181.442 123.79 182.5 121.879C183.598 119.968 185.123 118.504 187.075 117.487C189.027 116.47 191.345 115.962 194.029 115.962C196.713 115.962 199.031 116.47 200.983 117.487C202.935 118.504 204.439 119.968 205.497 121.879C206.595 123.79 207.144 126.068 207.144 128.711V137.678C207.144 140.321 206.595 142.619 205.497 144.571C204.439 146.482 202.935 147.946 200.983 148.963C199.031 149.98 196.713 150.488 194.029 150.488ZM194.029 145.608C196.428 145.608 198.299 144.937 199.641 143.595C200.983 142.253 201.654 140.281 201.654 137.678V128.772C201.654 126.169 200.983 124.197 199.641 122.855C198.299 121.513 196.428 120.842 194.029 120.842C191.67 120.842 189.799 121.513 188.417 122.855C187.075 124.197 186.404 126.169 186.404 128.772V137.678C186.404 140.281 187.075 142.253 188.417 143.595C189.799 144.937 191.67 145.608 194.029 145.608ZM230.849 150.61C228.165 150.61 225.806 150.102 223.773 149.085C221.78 148.068 220.235 146.604 219.137 144.693C218.039 142.741 217.49 140.443 217.49 137.8V128.65C217.49 125.966 218.039 123.668 219.137 121.757C220.235 119.846 221.78 118.382 223.773 117.365C225.806 116.348 228.165 115.84 230.849 115.84C234.712 115.84 237.823 116.877 240.182 118.951C242.54 121.025 243.781 123.851 243.903 127.43H238.413C238.291 125.275 237.559 123.628 236.217 122.489C234.915 121.31 233.126 120.72 230.849 120.72C228.449 120.72 226.538 121.411 225.115 122.794C223.691 124.136 222.98 126.068 222.98 128.589V137.8C222.98 140.321 223.691 142.273 225.115 143.656C226.538 145.039 228.449 145.73 230.849 145.73C233.126 145.73 234.915 145.14 236.217 143.961C237.559 142.782 238.291 141.135 238.413 139.02H243.903C243.781 142.599 242.54 145.425 240.182 147.499C237.823 149.573 234.712 150.61 230.849 150.61ZM254.493 150V105.47H259.983V116.45V122.855H261.142L259.983 124.136C259.983 121.493 260.776 119.459 262.362 118.036C263.948 116.572 266.144 115.84 268.95 115.84C272.325 115.84 275.009 116.877 277.002 118.951C278.995 121.025 279.991 123.851 279.991 127.43V150H274.501V128.04C274.501 125.641 273.85 123.79 272.549 122.489C271.288 121.147 269.56 120.476 267.364 120.476C265.087 120.476 263.277 121.188 261.935 122.611C260.634 124.034 259.983 126.047 259.983 128.65V150H254.493ZM291.252 150V105.47H296.742V130.297H303.208L312.968 116.45H319.251L307.966 132.432L319.434 150H313.029L303.269 135.055H296.742V150H291.252ZM327.218 150V144.998H339.113V121.452H328.743V116.45H344.603V144.998H355.888V150H327.218ZM341.248 110.411C339.906 110.411 338.849 110.065 338.076 109.374C337.304 108.683 336.917 107.747 336.917 106.568C336.917 105.348 337.304 104.392 338.076 103.701C338.849 102.969 339.906 102.603 341.248 102.603C342.59 102.603 343.648 102.969 344.42 103.701C345.193 104.392 345.579 105.348 345.579 106.568C345.579 107.747 345.193 108.683 344.42 109.374C343.648 110.065 342.59 110.411 341.248 110.411ZM364.221 150V116.45H369.711V122.855H370.87L369.711 124.136C369.711 121.493 370.504 119.459 372.09 118.036C373.676 116.572 375.872 115.84 378.678 115.84C382.054 115.84 384.738 116.877 386.73 118.951C388.723 121.025 389.719 123.851 389.719 127.43V150H384.229V128.04C384.229 125.641 383.579 123.811 382.277 122.55C381.017 121.249 379.288 120.598 377.092 120.598C374.815 120.598 373.005 121.289 371.663 122.672C370.362 124.055 369.711 126.047 369.711 128.65V150H364.221Z" fill="#F7F7F7"/>
<g clip-path="url(#clip0_5_209)">
<path d="M298.5 586C427.458 586 532 580.005 532 572.609C532 565.214 427.458 559.218 298.5 559.218C169.542 559.218 65 565.214 65 572.609C65 580.005 169.542 586 298.5 586Z" fill="#F2F2F2" fill-opacity="0.75"/>
<path d="M490.15 318H139.366V329.128H490.15V318Z" fill="#F2F2F2" fill-opacity="0.75"/>
<path d="M148.753 326.28C150.348 326.28 151.641 324.99 151.641 323.4C151.641 321.809 150.348 320.52 148.753 320.52C147.158 320.52 145.865 321.809 145.865 323.4C145.865 324.99 147.158 326.28 148.753 326.28Z" fill="#101010"/>
<path d="M158.14 326.28C159.735 326.28 161.028 324.99 161.028 323.4C161.028 321.809 159.735 320.52 158.14 320.52C156.545 320.52 155.252 321.809 155.252 323.4C155.252 324.99 156.545 326.28 158.14 326.28Z" fill="#101010"/>
<path d="M167.527 326.28C169.122 326.28 170.415 324.99 170.415 323.4C170.415 321.809 169.122 320.52 167.527 320.52C165.932 320.52 164.638 321.809 164.638 323.4C164.638 324.99 165.932 326.28 167.527 326.28Z" fill="#101010"/>
<path d="M139.615 493.995L139.366 494.208V569.274H490.15V437.419L485.969 437.735L139.615 493.995Z" fill="#3F3D56"/>
<path d="M262.638 392.437H164.681V396.375H262.638V392.437Z" fill="#3F3D56"/>
<path d="M262.638 401.102H164.681V405.04H262.638V401.102Z" fill="#3F3D56"/>
<path d="M197.86 409.766H164.681V413.705H197.86V409.766Z" fill="#3F3D56"/>
<path d="M462.401 501.778H364.445V505.716H462.401V501.778Z" fill="white"/>
<path d="M462.401 510.443H364.445V514.381H462.401V510.443Z" fill="white"/>
<path d="M397.624 519.107H364.445V523.046H397.624V519.107Z" fill="white"/>
<path d="M303.584 565.643C305.712 565.643 307.437 563.922 307.437 561.8C307.437 559.678 305.712 557.958 303.584 557.958C301.455 557.958 299.73 559.678 299.73 561.8C299.73 563.922 301.455 565.643 303.584 565.643Z" fill="#F2F2F2"/>
<path d="M314.758 566.027C316.886 566.027 318.611 564.307 318.611 562.185C318.611 560.063 316.886 558.342 314.758 558.342C312.63 558.342 310.905 560.063 310.905 562.185C310.905 564.307 312.63 566.027 314.758 566.027Z" fill="#F2F2F2"/>
<path d="M325.932 566.411C328.06 566.411 329.785 564.691 329.785 562.569C329.785 560.447 328.06 558.727 325.932 558.727C323.804 558.727 322.079 560.447 322.079 562.569C322.079 564.691 323.804 566.411 325.932 566.411Z" fill="#F2F2F2"/>
<path d="M314.793 565.258C316.496 565.258 317.876 563.882 317.876 562.185C317.876 560.487 316.496 559.111 314.793 559.111C313.091 559.111 311.711 560.487 311.711 562.185C311.711 563.882 313.091 565.258 314.793 565.258Z" fill="#3F3D56"/>
<path d="M230.162 437.518H196.984V445.066H230.162V437.518Z" fill="#3F3D56"/>
<path d="M427.376 539.654H394.197V547.202H427.376V539.654Z" fill="white"/>
<path opacity="0.3" d="M213.76 464.218C226.436 464.218 236.711 453.971 236.711 441.332C236.711 428.693 226.436 418.447 213.76 418.447C201.084 418.447 190.808 428.693 190.808 441.332C190.808 453.971 201.084 464.218 213.76 464.218Z" fill="#101010"/>
<path opacity="0.3" d="M213.76 456.589C222.21 456.589 229.061 449.758 229.061 441.332C229.061 432.906 222.21 426.075 213.76 426.075C205.309 426.075 198.459 432.906 198.459 441.332C198.459 449.758 205.309 456.589 213.76 456.589Z" fill="#101010"/>
<path d="M213.76 451.927C219.628 451.927 224.386 447.184 224.386 441.332C224.386 435.481 219.628 430.737 213.76 430.737C207.892 430.737 203.134 435.481 203.134 441.332C203.134 447.184 207.892 451.927 213.76 451.927Z" fill="#101010"/>
<path opacity="0.3" d="M406.882 407.501C419.558 407.501 429.834 397.255 429.834 384.615C429.834 371.976 419.558 361.73 406.882 361.73C394.206 361.73 383.931 371.976 383.931 384.615C383.931 397.255 394.206 407.501 406.882 407.501Z" fill="#101010"/>
<path opacity="0.3" d="M406.882 399.872C415.333 399.872 422.183 393.042 422.183 384.615C422.183 376.189 415.333 369.359 406.882 369.359C398.432 369.359 391.581 376.189 391.581 384.615C391.581 393.042 398.432 399.872 406.882 399.872Z" fill="#101010"/>
<path d="M406.882 395.21C412.751 395.21 417.508 390.467 417.508 384.615C417.508 378.764 412.751 374.02 406.882 374.02C401.014 374.02 396.257 378.764 396.257 384.615C396.257 390.467 401.014 395.21 406.882 395.21Z" fill="#101010"/>
<path opacity="0.3" d="M410.973 566.354C423.649 566.354 433.925 556.108 433.925 543.469C433.925 530.829 423.649 520.583 410.973 520.583C398.297 520.583 388.022 530.829 388.022 543.469C388.022 556.108 398.297 566.354 410.973 566.354Z" fill="#101010"/>
<path opacity="0.3" d="M410.973 558.725C419.424 558.725 426.274 551.895 426.274 543.469C426.274 535.042 419.424 528.212 410.973 528.212C402.523 528.212 395.672 535.042 395.672 543.469C395.672 551.895 402.523 558.725 410.973 558.725Z" fill="#101010"/>
<path d="M410.973 554.064C416.842 554.064 421.599 549.32 421.599 543.469C421.599 537.617 416.842 532.874 410.973 532.874C405.105 532.874 400.347 537.617 400.347 543.469C400.347 549.32 405.105 554.064 410.973 554.064Z" fill="#101010"/>
<path d="M103.219 364.348L112.666 364.713L113.137 352.602L103.69 352.237L103.219 364.348Z" fill="#101010"/>
<path d="M146.304 394.651C146.304 394.651 159.386 388.418 159.176 393.801C158.967 399.183 145.99 402.724 145.99 402.724L146.304 394.651Z" fill="#FFB9B9"/>
<path d="M139.126 440.193C139.126 440.193 145.298 455.255 147.579 466.124C149.859 476.994 153.332 491.952 148.865 502.56C144.397 513.169 131.697 544.347 131.566 547.711C131.435 551.075 132.654 554.491 129.955 554.387C127.256 554.282 112.568 549.672 111.972 547.627C111.376 545.583 116.983 540.409 116.983 540.409L130.83 497.146L116.383 468.961L105.963 511.009L103.922 563.487C103.922 563.487 93.9053 560.405 92.4512 563.044C92.4512 563.044 87.9634 556.806 87.3933 554.089C86.8232 551.371 89.5127 499.592 89.5127 499.592C89.5127 499.592 80.3183 440.614 87.7406 440.901C95.1629 441.188 124.235 423.445 139.126 440.193Z" fill="#2F2E41"/>
<path d="M130.06 551.696C130.06 551.696 136.906 566.784 137.555 567.483C138.203 568.182 142.665 575.093 139.291 574.962C135.918 574.832 127.951 571.155 122.088 565.538C116.224 559.92 108.494 550.188 109.195 549.541C109.896 548.894 114.697 547.059 114.697 547.059L130.06 551.696Z" fill="#2F2E41"/>
<path d="M102.703 560.071C102.703 560.071 103.116 566.825 104.361 569.569C105.606 572.312 105.449 576.349 102.075 576.219C98.7015 576.088 89.9821 574.403 89.9821 574.403C89.9821 574.403 89.4643 570.34 90.1653 569.694C90.8662 569.047 93.853 561.75 92.582 559.68C91.311 557.609 102.703 560.071 102.703 560.071Z" fill="#2F2E41"/>
<path d="M97.712 340.888C97.712 340.888 90.5197 352.065 87.716 354.652C84.9124 357.238 92.8001 362.934 92.8001 362.934L106.918 364.827C106.918 364.827 106.74 352.018 107.467 350.699C108.194 349.379 97.712 340.888 97.712 340.888Z" fill="#FFB9B9"/>
<path d="M109.983 355.513C109.983 355.513 107.074 360.791 104.375 360.686C101.676 360.582 87.716 354.652 87.1198 352.607C86.5235 350.563 82.4956 367.252 82.4956 367.252L116.656 427.195L124.988 421.453L120.951 386.258L117.635 367.263L109.983 355.513Z" fill="#101010"/>
<path d="M85.8598 409.159C87.2225 412.001 88.0735 414.965 87.9555 418C87.9503 418.134 87.9451 418.269 87.9331 418.403C87.6098 424.63 85.3092 431.832 84.4838 437.069C83.8849 440.826 84.0554 443.568 86.2603 444.213C91.606 445.767 85.4809 446.878 106.163 453.742C126.844 460.606 130.454 454.681 130.506 453.336C130.558 451.99 127.577 441.768 128.278 441.121C128.979 440.474 138.085 449.586 140.837 448.345C143.588 447.103 141.151 440.271 141.151 440.271C141.151 440.271 134.953 425.881 135.083 422.517C135.214 419.153 125.695 403.287 125.695 403.287L119.22 361.26C119.22 361.26 116.73 355.773 113.383 354.97C110.035 354.167 107.258 356.081 107.258 356.081L112.859 368.426L118.77 390.217L117.781 398.264C117.781 398.264 110.908 383.849 106.394 378.284C101.88 372.718 92.2562 359.544 92.2562 359.544C92.2562 359.544 90.0093 351.984 91.7055 349.725C93.4019 347.459 84.6302 347.12 80.8901 356.409C78.9078 361.332 75.6895 368.674 73.6734 375.509C71.8769 381.564 71.0283 387.225 72.8081 390.461C75.5284 395.404 82.3713 401.902 85.8598 409.159Z" fill="#3F3D56"/>
<path opacity="0.1" d="M72.8081 390.461C75.5284 395.404 82.3712 401.902 85.8598 409.159C86.771 405.886 87.8825 402.499 87.8825 402.499C87.8825 402.499 92.1459 379.754 79.535 373.876C77.4454 373.674 75.3556 374.257 73.6734 375.509C71.8769 381.564 71.0282 387.225 72.8081 390.461Z" fill="black"/>
<path d="M122.87 389.028L133.562 392.137L148.406 392.71L149.934 405.572L125.538 407.324C125.538 407.324 119.444 390.243 122.87 389.028Z" fill="#3F3D56"/>
<path d="M105.437 432.272C105.437 432.272 119.74 434.639 116.475 438.93C113.211 443.222 100.54 438.71 100.54 438.71L105.437 432.272Z" fill="#FFB9B9"/>
<path opacity="0.1" d="M87.933 418.403C87.6098 424.63 85.3091 431.832 84.4838 437.069C89.0401 441.369 93.373 445.162 95.0059 445.225C98.3796 445.355 103.804 444.891 105.802 445.642C107.8 446.393 108.972 433.636 108.972 433.636C108.972 433.636 107.779 429.547 102.46 427.32C98.8693 425.813 91.9867 421.727 87.933 418.403Z" fill="black"/>
<path d="M79.692 369.839C79.692 369.839 68.2735 368.05 68.8904 386.941C69.5073 405.831 67.6868 417.89 72.2792 421.436C76.8716 424.983 91.7891 441.058 95.1629 441.188C98.5366 441.318 103.961 440.854 105.959 441.605C107.957 442.357 109.129 429.599 109.129 429.599C109.129 429.599 107.936 425.51 102.617 423.283C97.2974 421.056 84.7649 413.159 84.8695 410.468C84.9742 407.777 88.0395 398.462 88.0395 398.462C88.0395 398.462 92.3029 375.717 79.692 369.839Z" fill="#3F3D56"/>
<path d="M107.781 357.438C115.986 357.438 122.637 350.806 122.637 342.625C122.637 334.444 115.986 327.812 107.781 327.812C99.5764 327.812 92.9253 334.444 92.9253 342.625C92.9253 350.806 99.5764 357.438 107.781 357.438Z" fill="#FFB9B9"/>
<path d="M117.784 321.394C118.142 321.702 118.571 321.916 119.033 322.019C119.265 322.06 119.503 322.008 119.697 321.874C119.89 321.741 120.023 321.536 120.066 321.305C120.406 322.008 120.789 322.757 121.483 323.118C122.177 323.479 123.25 323.176 123.35 322.402C123.451 322.99 123.712 323.539 124.104 323.989C124.534 324.398 125.315 324.502 125.691 324.042C125.387 325.698 125.575 327.401 125.479 329.082C125.384 330.762 124.934 332.544 123.661 333.65C121.804 335.261 119.011 334.864 116.567 334.558C116.198 334.481 115.815 334.502 115.456 334.619C114.541 335.007 114.583 336.277 114.57 337.269C114.496 339.008 113.805 340.665 112.621 341.945C111.438 343.225 109.837 344.045 108.105 344.26C107.135 344.41 106.145 344.169 105.354 343.591C104.66 343.005 104.306 342.049 103.511 341.609C102.218 340.892 100.65 341.937 99.7043 343.071C98.759 344.206 97.8273 345.601 96.3629 345.809C94.426 346.084 92.9509 344.115 92.2271 342.303C91.2286 339.763 90.7502 337.049 90.8202 334.322C90.8901 331.595 91.507 328.909 92.6345 326.423C96.6786 317.633 110.493 316.243 117.784 321.394Z" fill="#2F2E41"/>
<path d="M474.397 556.927C479.629 565.823 490.181 569.346 490.181 569.346C490.181 569.346 492.25 558.444 487.018 549.547C481.786 540.65 471.234 537.128 471.234 537.128C471.234 537.128 469.165 548.03 474.397 556.927Z" fill="#F2F2F2"/>
<path d="M477.662 553.822C486.71 558.819 490.5 569.25 490.5 569.25C490.5 569.25 479.621 571.581 470.573 566.584C461.525 561.587 457.734 551.155 457.734 551.155C457.734 551.155 468.613 548.825 477.662 553.822Z" fill="#101010"/>
</g>
<path d="M860.338 52H1047.47C1076.58 52 1100.17 75.5453 1100.17 104.59V531.324C1100.17 560.369 1076.58 583.914 1047.47 583.914H860.338C831.233 583.914 807.638 560.369 807.638 531.324V104.59C807.638 75.5453 831.233 52 860.338 52Z" fill="#3F3D56"/>
<path d="M812.573 104.594V531.325C812.588 543.962 817.625 556.078 826.58 565.014C835.534 573.95 847.675 578.977 860.339 578.991H1047.47C1060.14 578.977 1072.28 573.95 1081.23 565.014C1090.19 556.078 1095.22 543.962 1095.24 531.325V104.594C1095.22 91.9561 1090.19 79.8405 1081.23 70.9045C1072.28 61.9685 1060.14 56.9418 1047.47 56.9272H1023V65.3626C1023 69.1815 1021.48 72.8439 1018.78 75.5442C1016.07 78.2446 1012.4 79.7617 1008.57 79.7619H899.239C895.412 79.7617 891.742 78.2446 889.036 75.5442C886.33 72.8439 884.81 69.1815 884.81 65.3626V56.9272H860.339C847.675 56.9418 835.534 61.9685 826.58 70.9045C817.625 79.8405 812.588 91.9561 812.573 104.594Z" fill="white" fill-opacity="0.75"/>
<path d="M1101.52 159.905C1102.47 159.904 1103.38 159.526 1104.06 158.855C1104.73 158.183 1105.11 157.273 1105.11 156.323V149.159C1105.11 148.209 1104.73 147.298 1104.06 146.627C1103.38 145.955 1102.47 145.578 1101.52 145.578C1100.57 145.578 1099.66 145.955 1098.98 146.627C1098.31 147.298 1097.93 148.209 1097.93 149.159V156.323C1097.93 157.273 1098.31 158.183 1098.98 158.855C1099.66 159.526 1100.57 159.904 1101.52 159.905Z" fill="#3F3D56"/>
<path d="M1101.52 196.639C1102.47 196.638 1103.38 196.26 1104.06 195.589C1104.73 194.917 1105.11 194.007 1105.11 193.057V173.337C1105.11 172.387 1104.73 171.476 1104.06 170.805C1103.38 170.133 1102.47 169.755 1101.52 169.755C1100.57 169.755 1099.66 170.133 1098.98 170.805C1098.31 171.476 1097.93 172.387 1097.93 173.337V193.057C1097.93 194.007 1098.31 194.917 1098.98 195.589C1099.66 196.26 1100.57 196.638 1101.52 196.639Z" fill="#3F3D56"/>
<path d="M1101.52 226.171C1102.47 226.17 1103.38 225.792 1104.06 225.12C1104.73 224.449 1105.11 223.538 1105.11 222.589V202.869C1105.11 201.919 1104.73 201.008 1104.06 200.336C1103.38 199.664 1102.47 199.287 1101.52 199.287C1100.57 199.287 1099.66 199.664 1098.98 200.336C1098.31 201.008 1097.93 201.919 1097.93 202.869V222.589C1097.93 223.538 1098.31 224.449 1098.98 225.12C1099.66 225.792 1100.57 226.17 1101.52 226.171Z" fill="#3F3D56"/>
<path d="M807.19 210.052C808.141 210.051 809.054 209.673 809.727 209.002C810.4 208.33 810.778 207.42 810.779 206.47V158.353C810.779 157.403 810.401 156.492 809.728 155.82C809.055 155.148 808.142 154.771 807.19 154.771C806.238 154.771 805.325 155.148 804.652 155.82C803.979 156.492 803.6 157.403 803.6 158.353V206.47C803.601 207.42 803.98 208.33 804.653 209.002C805.326 209.673 806.238 210.051 807.19 210.052Z" fill="#3F3D56"/>
<path d="M946.196 68.4283H974.013C974.608 68.4283 975.179 68.1924 975.6 67.7726C976.02 67.3527 976.257 66.7833 976.257 66.1896C976.257 65.5958 976.02 65.0264 975.6 64.6066C975.179 64.1867 974.608 63.9509 974.013 63.9509H946.196C945.601 63.9509 945.03 64.1867 944.609 64.6066C944.189 65.0264 943.952 65.5958 943.952 66.1896C943.952 66.7833 944.189 67.3527 944.609 67.7726C945.03 68.1924 945.601 68.4283 946.196 68.4283Z" fill="white"/>
<path d="M931.838 67.9805C930.847 67.9805 930.043 67.1787 930.043 66.1896C930.043 65.2005 930.847 64.3986 931.838 64.3986C932.829 64.3986 933.633 65.2005 933.633 66.1896C933.633 67.1787 932.829 67.9805 931.838 67.9805Z" fill="white"/>
<path d="M716.201 561.543C715.546 561.566 714.899 561.389 714.348 561.033C713.798 560.678 713.37 560.163 713.122 559.556C712.875 558.95 712.821 558.283 712.966 557.645C713.112 557.007 713.45 556.429 713.936 555.989C714.02 555.67 714.08 555.441 714.164 555.122C713.552 553.527 712.477 552.151 711.076 551.169C709.676 550.188 708.013 549.647 706.302 549.614C704.591 549.582 702.909 550.06 701.472 550.988C700.035 551.915 698.909 553.25 698.237 554.821C694.362 563.638 689.37 572.756 691.716 582.529C675.928 548.298 681.813 505.959 705.904 477.042C712.52 473.486 717.917 467.108 719.377 459.657C716.109 460.727 712.072 458.045 714.554 454.644C715.628 453.345 716.713 452.057 717.787 450.758C705.538 437.489 690.597 458.018 704.048 475.898C699.539 481.43 695.622 487.418 692.361 493.763C693.165 487 692.348 480.143 689.978 473.757C687.571 467.803 683.001 462.764 678.984 457.599C674.1 451.305 663.897 454.09 663.156 462.011C667.704 463.551 668.234 470.134 663.007 470.984C664.233 485.745 673.758 499.39 686.994 505.984C681.952 519.687 679.895 534.305 680.96 548.864C678.775 531.84 660.526 527.54 647.808 520.661C646.999 520.133 646.054 519.851 645.088 519.85C644.121 519.848 643.175 520.127 642.365 520.653C641.555 521.179 640.915 521.929 640.525 522.811C640.134 523.694 640.01 524.67 640.166 525.622C641.923 526.355 643.604 527.26 645.182 528.324C645.921 528.83 646.486 529.553 646.797 530.392C647.109 531.231 647.154 532.145 646.924 533.01C646.695 533.876 646.203 534.649 645.516 535.224C644.829 535.799 643.98 536.148 643.087 536.223C649.378 552.198 665.935 563.042 683.044 563.145C684.621 570.29 686.937 577.253 689.955 583.921L715.349 584.162C715.443 583.881 715.527 583.591 715.612 583.311C713.26 583.436 710.902 583.273 708.589 582.826C714.878 575.538 719.722 571.834 716.201 561.543Z" fill="#F2F2F2" fill-opacity="0.5"/>
<path d="M1033.69 78.0343H1057.92C1059.11 78.0343 1060.25 77.5626 1061.09 76.7229C1061.94 75.8832 1062.41 74.7444 1062.41 73.5569C1062.41 72.3694 1061.94 71.2306 1061.09 70.3909C1060.25 69.5512 1059.11 69.0795 1057.92 69.0795H1033.69C1032.5 69.0795 1031.36 69.5512 1030.52 70.3909C1029.68 71.2306 1029.21 72.3694 1029.21 73.5569C1029.21 74.7444 1029.68 75.8832 1030.52 76.7229C1031.36 77.5626 1032.5 78.0343 1033.69 78.0343Z" fill="#E6E6E6"/>
<path d="M874.862 77.5866C872.632 77.5866 870.824 75.7824 870.824 73.5569C870.824 71.3314 872.632 69.5273 874.862 69.5273C877.093 69.5273 878.901 71.3314 878.901 73.5569C878.901 75.7824 877.093 77.5866 874.862 77.5866Z" fill="#E6E6E6"/>
<path d="M862.3 77.5866C860.069 77.5866 858.262 75.7824 858.262 73.5569C858.262 71.3314 860.069 69.5273 862.3 69.5273C864.53 69.5273 866.338 71.3314 866.338 73.5569C866.338 75.7824 864.53 77.5866 862.3 77.5866Z" fill="#E6E6E6"/>
<path d="M849.737 77.5866C847.506 77.5866 845.699 75.7824 845.699 73.5569C845.699 71.3314 847.506 69.5273 849.737 69.5273C851.967 69.5273 853.775 71.3314 853.775 73.5569C853.775 75.7824 851.967 77.5866 849.737 77.5866Z" fill="#E6E6E6"/>
<path d="M877.686 140.614H1029.97C1032.92 140.618 1035.74 141.789 1037.83 143.871C1039.92 145.952 1041.09 148.774 1041.09 151.718V250.498C1041.09 253.442 1039.92 256.264 1037.83 258.345C1035.74 260.427 1032.92 261.598 1029.97 261.602H877.686C874.735 261.6 871.907 260.429 869.82 258.347C867.734 256.265 866.561 253.442 866.559 250.498V151.718C866.561 148.774 867.734 145.951 869.82 143.869C871.907 141.787 874.735 140.617 877.686 140.614Z" fill="#F2F2F2" fill-opacity="0.5"/>
<path d="M925.359 182.784C939.121 207.064 954.307 230.513 970.838 253.007H994.719C979.077 233.991 963.424 214.975 947.759 195.959C943.265 190.484 938.388 184.748 931.647 182.523L925.359 182.784Z" fill="#3F3D56"/>
<path d="M957.095 178.89C959.586 181.48 961.973 184.174 964.22 186.973C969.166 192.917 974.043 198.914 978.938 204.894C981.986 208.613 985.034 212.333 988.048 216.053C989.005 215.439 989.913 214.754 990.765 214.002C995.578 209.833 998.563 203.949 999.081 197.61C999.599 191.271 997.608 184.982 993.535 180.091C989.463 175.199 983.632 172.094 977.293 171.44C970.953 170.787 964.61 172.638 959.621 176.596C958.722 177.295 957.878 178.062 957.095 178.89Z" fill="#101010"/>
<path d="M866.559 176.066V179.675L868.174 179.084L890.904 170.792C898.307 168.096 905.692 165.016 913.337 163.073C919.989 161.174 927.053 161.264 933.653 163.332C939.537 165.505 944.921 168.84 949.482 173.138C951.502 175 953.458 176.908 955.351 178.887C955.97 179.54 956.59 180.194 957.2 180.848C959.03 182.836 960.798 184.868 962.476 186.973C967.421 192.919 972.302 198.919 977.193 204.891C980.244 208.617 983.295 212.333 986.31 216.049C996.378 228.344 1006.39 240.663 1016.33 253.005C1017.67 252.99 1019.01 252.822 1020.31 252.504C1010.16 239.923 999.964 227.374 989.72 214.858C989.486 214.572 989.253 214.285 989.02 213.998C987.817 212.503 986.588 210.999 985.367 209.503C980.262 203.262 975.153 197.026 970.041 190.797C966.326 186.265 962.638 181.716 958.635 177.418C958.393 177.141 958.142 176.872 957.882 176.594C957.496 176.182 957.11 175.779 956.715 175.359C948.02 166.395 937.171 158.47 924.177 158.255C916.532 158.138 909.147 160.556 902.04 163.108C894.385 165.875 886.758 168.687 879.112 171.481L866.559 176.066Z" fill="#3F3D56"/>
<path d="M862.978 479.697H1044.83C1047.78 479.693 1050.61 478.523 1052.7 476.441C1054.78 474.36 1055.96 471.537 1055.96 468.594V444.136C1055.96 441.192 1054.78 438.37 1052.7 436.288C1050.61 434.207 1047.78 433.036 1044.83 433.033H862.978C860.028 433.036 857.2 434.207 855.114 436.288C853.028 438.37 851.855 441.192 851.852 444.136V468.594C851.855 471.537 853.028 474.36 855.114 476.441C857.2 478.523 860.028 479.693 862.978 479.697Z" fill="#F2F2F2"/>
<path d="M862.978 354.33H1044.83C1047.78 354.327 1050.61 353.156 1052.7 351.074C1054.78 348.993 1055.96 346.17 1055.96 343.227V318.769C1055.96 315.825 1054.78 313.003 1052.7 310.921C1050.61 308.84 1047.78 307.669 1044.83 307.666H862.978C860.028 307.669 857.2 308.84 855.114 310.921C853.028 313.003 851.855 315.825 851.852 318.769V343.227C851.855 346.17 853.028 348.993 855.114 351.074C857.2 353.156 860.028 354.327 862.978 354.33Z" fill="#F2F2F2" fill-opacity="0.75"/>
<path d="M862.978 417.013H1044.83C1047.78 417.01 1050.61 415.839 1052.7 413.758C1054.78 411.676 1055.96 408.854 1055.96 405.91V381.452C1055.96 378.508 1054.78 375.686 1052.7 373.605C1050.61 371.523 1047.78 370.352 1044.83 370.349H862.978C860.028 370.352 857.2 371.523 855.114 373.605C853.028 375.686 851.855 378.508 851.852 381.452V405.91C851.855 408.854 853.028 411.676 855.114 413.758C857.2 415.839 860.028 417.01 862.978 417.013Z" fill="#F2F2F2" fill-opacity="0.75"/>
<path d="M931.812 452.179H985.394C986.03 452.179 986.639 451.927 987.089 451.478C987.538 451.03 987.791 450.421 987.791 449.787C987.791 449.152 987.538 448.544 987.089 448.095C986.639 447.647 986.03 447.395 985.394 447.395H931.812C931.176 447.395 930.567 447.647 930.117 448.095C929.667 448.544 929.415 449.152 929.415 449.787C929.415 450.421 929.667 451.03 930.117 451.478C930.567 451.927 931.176 452.179 931.812 452.179Z" fill="white"/>
<path d="M880.277 465.335H985.993C986.629 465.335 987.239 465.083 987.688 464.634C988.138 464.185 988.39 463.577 988.39 462.943C988.39 462.308 988.138 461.7 987.688 461.251C987.239 460.803 986.629 460.551 985.993 460.551H880.277C879.641 460.551 879.032 460.803 878.582 461.251C878.133 461.7 877.88 462.308 877.88 462.943C877.88 463.577 878.133 464.185 878.582 464.634C879.032 465.083 879.641 465.335 880.277 465.335Z" fill="white"/>
<path d="M1013.86 472.402C1004.98 472.402 997.789 465.222 997.789 456.365C997.789 447.507 1004.98 440.327 1013.86 440.327C1022.74 440.327 1029.93 447.507 1029.93 456.365C1029.93 465.222 1022.74 472.402 1013.86 472.402Z" fill="white" fill-opacity="0.75"/>
<path d="M1017.44 478.028C1019.08 477.263 1020.96 477.167 1022.67 477.76C1024.38 478.353 1025.79 479.589 1026.6 481.204C1026.76 481.535 1026.89 481.878 1026.99 482.231L1051.19 483.674L1054.78 496.186L1021.84 490.632C1020.34 490.945 1018.78 490.753 1017.41 490.088C1016.03 489.423 1014.91 488.321 1014.22 486.955C1013.84 486.174 1013.62 485.326 1013.57 484.458C1013.51 483.591 1013.63 482.721 1013.91 481.899C1014.2 481.078 1014.64 480.32 1015.22 479.668C1015.79 479.017 1016.49 478.486 1017.28 478.105C1017.33 478.079 1017.39 478.053 1017.44 478.028Z" fill="#FFB6B6"/>
<path d="M1070.86 416.311C1072.45 415.66 1074.17 415.359 1075.89 415.429C1077.61 415.499 1079.3 415.939 1080.84 416.717C1082.37 417.495 1083.72 418.595 1084.8 419.941C1085.87 421.286 1086.64 422.847 1087.05 424.516L1093.71 451.329L1092.45 498.238C1092.45 498.238 1057.72 504.888 1051.89 500.613C1046.06 496.339 1046.61 493.157 1046.06 496.339C1045.52 499.521 1043.01 500.856 1042.98 499.59C1042.95 498.324 1042.66 498.541 1041.21 498.159C1039.76 497.778 1033.34 495.42 1033.34 495.42L1033.06 482.045C1033.06 482.045 1043.66 478.035 1046.23 479.231C1048.8 480.428 1045.68 482.414 1048.8 480.428C1051.92 478.442 1052.26 472.175 1052.8 477.823C1053.33 483.471 1054.89 484.523 1057.23 482.012C1059.57 479.5 1070.4 481.104 1070.4 481.104L1063.51 428.961C1063.16 426.338 1063.69 423.675 1065.02 421.386C1066.35 419.098 1068.41 417.313 1070.86 416.311Z" fill="#101010"/>
<path d="M836.98 555.418L836.614 545.541L874.619 539.435L875.157 554.012L836.98 555.418Z" fill="#FFB6B6"/>
<path d="M843.878 558.392L844.239 542.577L837.464 542.827L826.526 528.206C825.986 527.484 825.229 526.953 824.365 526.691C823.501 526.429 822.575 526.449 821.724 526.749C820.872 527.048 820.139 527.612 819.631 528.357C819.123 529.102 818.867 529.99 818.9 530.89L819.595 549.677L826.416 552.668L819.762 554.179L820.024 561.263L843.878 558.392Z" fill="#2F2E41"/>
<path d="M1050.87 578.069L930.498 564.101C930.498 564.101 878.517 567.097 866.321 559.179L853.46 557.559L852.763 538.707C852.763 538.707 860.627 538.765 865.149 536.662C869.671 534.56 866.528 531.987 870.839 534.517C875.15 537.046 874.695 537.351 878.028 536.188C881.361 535.026 1034.21 528.791 1034.21 528.791L1050.87 578.069Z" fill="#2F2E41"/>
<path d="M892.251 569.888L885.252 562.895L908.951 532.625L919.281 542.946L892.251 569.888Z" fill="#FFB6B6"/>
<path d="M899.335 567.386L888.821 555.548L884.024 560.329L866.041 557.034C865.153 556.872 864.236 556.996 863.424 557.39C862.612 557.785 861.947 558.427 861.527 559.225C861.107 560.023 860.954 560.934 861.089 561.825C861.225 562.716 861.642 563.54 862.28 564.177L875.593 577.479L882.633 575.042L878.784 580.666L883.804 585.681L899.335 567.386Z" fill="#2F2E41"/>
<path d="M1098.36 512.282L1097.16 540.042C1095.76 572.721 1059.69 592.5 1031.73 575.437C1031.21 575.123 1030.69 574.797 1030.18 574.46C1030.18 574.46 1019.57 571.619 1019.9 567.119C1020.22 562.62 1017.63 560.43 1015.34 561.657C1013.04 562.884 983.035 520.384 983.035 520.384C983.035 520.384 920.686 551.42 906.931 558.727L892.418 554.781C892.418 554.781 886.956 557.355 888.923 553.632C890.891 549.908 891.244 551.692 891.848 547.635C892.453 543.578 893.999 538.549 894.937 538.76C895.874 538.972 972.07 485.752 972.07 485.752C972.07 485.752 984.483 473.216 999.881 481.493C1000.2 482.709 999.928 482.752 999.928 482.752L1050.79 524.112L1057.98 510.491L1098.36 512.282Z" fill="#2F2E41"/>
<path d="M1064.17 410.285L1085.98 400.085L1092.51 411.422C1092.51 411.422 1110.05 436.394 1110.3 454.409C1110.56 472.425 1107.44 477.782 1107.44 477.782C1107.44 477.782 1115.01 483.423 1111.22 486.871C1107.44 490.319 1099.08 491.807 1105.5 493.301C1111.93 494.796 1110.3 509.929 1103.12 512.616C1095.94 515.302 1057.39 515.278 1057.39 515.278C1057.74 514.105 1057.76 512.861 1057.46 511.674C1057.17 510.488 1056.56 509.403 1055.69 508.532C1052.71 505.542 1050.01 507.687 1052.71 503.033C1055.4 498.378 1059.88 501.065 1056.3 494.796C1052.71 488.528 1052.71 486.655 1052.71 486.655C1052.71 486.655 1045.39 472.758 1056.41 457.682C1057.08 456.763 1056.52 456.727 1056.52 456.727L1065.42 426.965L1064.17 410.285Z" fill="#101010"/>
<path d="M1099.32 367.397C1099.14 371.995 1102.04 378.508 1103.47 382.435C1105 386.634 1098.37 392.207 1094.13 393.428C1093.91 391.973 1093.18 390.643 1092.08 389.67C1092.38 391.056 1092.41 392.489 1092.16 393.886L1056.31 402.029C1049.86 394.577 1043.38 383.863 1044.79 370.941C1044.45 368.488 1044.85 365.989 1045.93 363.758C1047.01 361.528 1048.72 359.666 1050.86 358.405L1068.98 347.721C1076.69 345.97 1086.4 344.913 1091.96 349.672C1094.45 351.881 1096.4 354.623 1097.68 357.693C1098.95 360.762 1099.51 364.08 1099.32 367.397Z" fill="#2F2E41"/>
<path d="M1067.28 398.092C1055.88 398.092 1046.64 388.871 1046.64 377.496C1046.64 366.121 1055.88 356.9 1067.28 356.9C1078.68 356.9 1087.92 366.121 1087.92 377.496C1087.92 388.871 1078.68 398.092 1067.28 398.092Z" fill="#FFB6B6"/>
<path d="M1091.46 366.493L1092.45 370.859L1075.04 374.814C1075.03 373.931 1074.83 373.061 1074.46 372.258C1074.09 371.455 1073.56 370.737 1072.9 370.149C1073.28 371.86 1073.23 373.637 1072.77 375.329C1063.38 380.587 1054.92 382.45 1047.33 381.109C1046.3 381.343 1045.22 381.159 1044.33 380.599C1043.44 380.039 1042.81 379.147 1042.57 378.121C1039.52 364.736 1047.52 351.056 1060.87 347.733C1064.11 346.924 1067.48 346.769 1070.79 347.277C1074.09 347.786 1077.26 348.948 1080.11 350.695C1082.96 352.443 1085.43 354.74 1087.38 357.453C1089.33 360.165 1090.71 363.239 1091.46 366.493Z" fill="#2F2E41"/>
<path d="M1081.28 337.689C1078.98 337.192 1076.55 337.312 1074.48 335.76L1075.84 338.879C1072.06 337.847 1068.04 338.248 1064.54 340.005C1063.5 340.47 1062.62 341.218 1061.99 342.164C1061.65 342.736 1061.44 343.376 1061.38 344.038C1061.32 344.7 1061.42 345.366 1061.65 345.987C1061.87 346.521 1062.21 347.002 1062.63 347.4C1063.05 347.798 1063.54 348.104 1064.09 348.299C1065.06 348.589 1066.07 348.695 1067.07 348.611C1071.31 348.512 1075.55 348.414 1079.79 348.315C1081.4 348.415 1083.01 348.102 1084.47 347.406C1085.25 346.928 1085.87 346.234 1086.26 345.409C1086.64 344.585 1086.78 343.666 1086.65 342.765C1086.25 339.93 1083.57 338.187 1081.28 337.689Z" fill="#2F2E41"/>
<path d="M969.319 499.109C969.368 499.05 969.425 498.998 969.488 498.954C969.642 498.775 969.83 498.628 970.041 498.522L971.551 497.715L981.578 486.607C982.158 486.305 982.833 486.241 983.46 486.427L983.486 486.435L987.781 487.76L991.475 488.904L996.635 490.501L1031.78 501.361L1054.88 508.498C1055.51 508.696 1056.03 509.13 1056.34 509.707C1056.64 510.285 1056.71 510.959 1056.52 511.586C1056.42 511.931 1056.24 512.25 1056 512.521L1055.26 513.338L1053.72 515.052L1050.15 522.44L1049.16 523.544C1048.84 523.895 1048.43 524.15 1047.98 524.277C1047.52 524.405 1047.04 524.4 1046.58 524.264L970.476 503.144C970.081 503.017 969.723 502.794 969.434 502.496C969.146 502.197 968.935 501.833 968.82 501.434C968.706 501.035 968.692 500.615 968.779 500.209C968.866 499.804 969.051 499.426 969.319 499.109Z" fill="#CCCCCC"/>
<path d="M973.838 389.228L975.311 389.467C975.715 389.534 976.077 389.757 976.316 390.089L976.965 390.995L982.823 405.611C983.061 405.945 983.157 406.36 983.089 406.765L982.403 410.929L984.996 485.259C984.931 485.643 984.724 485.989 984.416 486.229L973.044 501.41L972.778 501.62L972.206 502.068C971.912 502.294 971.548 502.41 971.177 502.394L970.21 502.348C969.991 502.338 969.776 502.281 969.58 502.181C969.385 502.081 969.212 501.941 969.075 501.77C968.936 501.601 968.835 501.404 968.78 501.192C968.724 500.981 968.715 500.759 968.752 500.544L972.051 390.5C972.118 390.096 972.343 389.735 972.677 389.496C973.01 389.257 973.425 389.161 973.83 389.227L973.838 389.228Z" fill="#CCCCCC"/>
<path d="M976.306 395.004L981.494 410.776L983.501 473.777L975.425 480.94L976.306 395.004Z" fill="#101010"/>
<path d="M1016.43 491.104C1018.07 490.339 1019.94 490.243 1021.65 490.836C1023.36 491.429 1024.77 492.665 1025.58 494.28C1025.74 494.611 1025.88 494.955 1025.98 495.307L1050.18 496.75L1053.77 509.262L1020.83 503.709C1019.33 504.021 1017.77 503.83 1016.39 503.164C1015.01 502.499 1013.9 501.398 1013.21 500.032C1012.44 498.454 1012.33 496.635 1012.9 494.976C1013.47 493.316 1014.68 491.951 1016.26 491.181C1016.32 491.155 1016.37 491.129 1016.43 491.104Z" fill="#FFB6B6"/>
<path d="M1069.85 429.388C1071.44 428.736 1073.16 428.436 1074.88 428.506C1076.6 428.576 1078.29 429.015 1079.82 429.793C1081.36 430.572 1082.71 431.671 1083.78 433.017C1084.86 434.363 1085.63 435.923 1086.04 437.592L1092.69 464.406L1091.44 511.314C1091.44 511.314 1056.71 517.964 1050.88 513.69C1045.05 509.415 1045.6 506.233 1045.05 509.415C1044.5 512.597 1042 513.932 1041.97 512.666C1041.93 511.4 1041.65 511.617 1040.2 511.236C1038.74 510.854 1032.33 508.496 1032.33 508.496L1032.04 495.122C1032.04 495.122 1042.65 491.111 1045.22 492.308C1047.79 493.504 1044.67 495.49 1047.79 493.504C1050.91 491.519 1051.25 485.252 1051.78 490.9C1052.32 496.548 1053.88 497.599 1056.22 495.088C1058.55 492.576 1069.39 494.181 1069.39 494.181L1062.49 442.037C1062.15 439.414 1062.68 436.751 1064.01 434.462C1065.34 432.174 1067.39 430.39 1069.85 429.388Z" fill="#101010"/>
<path d="M1171 585C1171 585.131 1170.98 585.262 1170.93 585.383C1170.89 585.505 1170.82 585.615 1170.74 585.708C1170.66 585.801 1170.56 585.875 1170.46 585.925C1170.35 585.975 1170.24 586 1170.12 586L640.88 586C640.647 586 640.423 585.895 640.258 585.707C640.093 585.52 640 585.265 640 585C640 584.735 640.093 584.48 640.258 584.293C640.423 584.105 640.647 584 640.88 584H1170.12C1170.24 584 1170.35 584.025 1170.46 584.075C1170.56 584.125 1170.66 584.199 1170.74 584.292C1170.82 584.385 1170.89 584.495 1170.93 584.617C1170.98 584.738 1171 584.869 1171 585Z" fill="#CCCCCC" fill-opacity="0.75"/>
<path d="M717.608 354.33H899.463C902.413 354.327 905.241 353.156 907.327 351.074C909.413 348.993 910.586 346.17 910.589 343.227V318.769C910.586 315.825 909.413 313.003 907.327 310.921C905.241 308.84 902.413 307.669 899.463 307.666H717.608C714.658 307.669 711.83 308.84 709.744 310.921C707.658 313.003 706.485 315.825 706.481 318.769V343.227C706.485 346.17 707.658 348.993 709.744 351.074C711.83 353.156 714.658 354.327 717.608 354.33Z" fill="#E6E6E6"/>
<path d="M786.441 326.812H840.024C840.659 326.812 841.269 326.56 841.719 326.111C842.168 325.663 842.421 325.054 842.421 324.42C842.421 323.785 842.168 323.177 841.719 322.728C841.269 322.28 840.659 322.028 840.024 322.028H786.441C785.806 322.028 785.196 322.28 784.747 322.728C784.297 323.177 784.044 323.785 784.044 324.42C784.044 325.054 784.297 325.663 784.747 326.111C785.196 326.56 785.806 326.812 786.441 326.812Z" fill="white"/>
<path d="M734.907 339.968H840.623C841.259 339.968 841.868 339.716 842.318 339.267C842.767 338.819 843.02 338.21 843.02 337.576C843.02 336.941 842.767 336.333 842.318 335.884C841.868 335.436 841.259 335.184 840.623 335.184H734.907C734.271 335.184 733.661 335.436 733.212 335.884C732.762 336.333 732.51 336.941 732.51 337.576C732.51 338.21 732.762 338.819 733.212 339.267C733.661 339.716 734.271 339.968 734.907 339.968Z" fill="white"/>
<path d="M868.49 347.035C859.614 347.035 852.419 339.855 852.419 330.998C852.419 322.14 859.614 314.96 868.49 314.96C877.366 314.96 884.561 322.14 884.561 330.998C884.561 339.855 877.366 347.035 868.49 347.035Z" fill="white" fill-opacity="0.75"/>
<path d="M775.935 417.013H957.791C960.74 417.01 963.569 415.839 965.654 413.758C967.74 411.676 968.914 408.854 968.917 405.91V381.452C968.914 378.508 967.74 375.686 965.654 373.605C963.569 371.523 960.74 370.352 957.791 370.349H775.935C772.985 370.352 770.157 371.523 768.071 373.605C765.986 375.686 764.812 378.508 764.809 381.452V405.91C764.812 408.854 765.986 411.676 768.071 413.758C770.157 415.839 772.985 417.01 775.935 417.013Z" fill="#E6E6E6"/>
<path d="M844.769 389.495H898.351C898.987 389.495 899.597 389.243 900.046 388.795C900.496 388.346 900.748 387.738 900.748 387.103C900.748 386.469 900.496 385.86 900.046 385.412C899.597 384.963 898.987 384.711 898.351 384.711H844.769C844.133 384.711 843.524 384.963 843.074 385.412C842.625 385.86 842.372 386.469 842.372 387.103C842.372 387.738 842.625 388.346 843.074 388.795C843.524 389.243 844.133 389.495 844.769 389.495Z" fill="white"/>
<path d="M793.234 402.651H898.951C899.586 402.651 900.196 402.399 900.645 401.951C901.095 401.502 901.348 400.894 901.348 400.259C901.348 399.625 901.095 399.016 900.645 398.568C900.196 398.119 899.586 397.867 898.951 397.867H793.234C792.599 397.867 791.989 398.119 791.539 398.568C791.09 399.016 790.837 399.625 790.837 400.259C790.837 400.894 791.09 401.502 791.539 401.951C791.989 402.399 792.599 402.651 793.234 402.651Z" fill="white"/>
<path d="M926.818 409.719C917.942 409.719 910.747 402.538 910.747 393.681C910.747 384.824 917.942 377.644 926.818 377.644C935.693 377.644 942.889 384.824 942.889 393.681C942.889 402.538 935.693 409.719 926.818 409.719Z" fill="white" fill-opacity="0.75"/>
<defs>
<filter id="filter0_d_5_209" x="0" y="0" width="1176" height="603" filterUnits="userSpaceOnUse" color-interpolation-filters="sRGB">
<feFlood flood-opacity="0" result="BackgroundImageFix"/>
<feColorMatrix in="SourceAlpha" type="matrix" values="0 0 0 0 0 0 0 0 0 0 0 0 0 0 0 0 0 0 127 0" result="hardAlpha"/>
<feOffset dy="4"/>
<feGaussianBlur stdDeviation="2"/>
<feComposite in2="hardAlpha" operator="out"/>
<feColorMatrix type="matrix" values="0 0 0 0 0 0 0 0 0 0 0 0 0 0 0 0 0 0 0.25 0"/>
<feBlend mode="normal" in2="BackgroundImageFix" result="effect1_dropShadow_5_209"/>
<feBlend mode="normal" in="SourceGraphic" in2="effect1_dropShadow_5_209" result="shape"/>
</filter>
<clipPath id="clip0_5_209">
<rect width="467" height="268" fill="white" transform="translate(65 318)"/>
</clipPath>
</defs>
</svg>
